<svg xmlns="http://www.w3.org/2000/svg" xmlns:xlink="http://www.w3.org/1999/xlink" width="1920" zoomAndPan="magnify" viewBox="0 0 1440 809.999993" height="1080" preserveAspectRatio="xMidYMid meet" version="1.0"><defs><clipPath id="ac7e540777"><path d="M 0 1 L 513.75 1 L 513.75 809 L 0 809 Z M 0 1 " clip-rule="nonzero"/></clipPath></defs><g clip-path="url(#ac7e540777)"><path fill="#000000" d="M 510.234375 808.964844 C 509.757812 808.964844 509.296875 808.871094 508.855469 808.691406 C 508.414062 808.507812 508.023438 808.246094 507.683594 807.90625 C 507.347656 807.570312 507.085938 807.179688 506.902344 806.738281 C 506.722656 806.296875 506.628906 805.835938 506.628906 805.359375 L 506.628906 258.074219 C 506.628906 120.3125 394.613281 8.25 256.929688 8.25 C 119.242188 8.25 7.210938 120.3125 7.210938 258.074219 L 7.210938 805.359375 C 7.210938 805.835938 7.117188 806.296875 6.9375 806.738281 C 6.753906 807.179688 6.492188 807.570312 6.15625 807.90625 C 5.816406 808.246094 5.425781 808.507812 4.984375 808.691406 C 4.542969 808.871094 4.082031 808.964844 3.605469 808.964844 C 3.128906 808.964844 2.667969 808.871094 2.226562 808.691406 C 1.785156 808.507812 1.394531 808.246094 1.054688 807.90625 C 0.71875 807.570312 0.457031 807.179688 0.273438 806.738281 C 0.0898438 806.296875 0 805.835938 0 805.359375 L 0 258.074219 C 0 116.347656 115.261719 1.035156 256.929688 1.035156 C 398.597656 1.035156 513.839844 116.347656 513.839844 258.074219 L 513.839844 805.359375 C 513.839844 805.835938 513.75 806.296875 513.566406 806.738281 C 513.382812 807.179688 513.121094 807.570312 512.785156 807.90625 C 512.445312 808.246094 512.054688 808.507812 511.613281 808.691406 C 511.171875 808.871094 510.710938 808.964844 510.234375 808.964844 Z M 475.011719 805.25 L 475.011719 258.816406 C 475.007812 255.246094 474.921875 251.675781 474.742188 248.113281 C 474.566406 244.546875 474.300781 240.988281 473.953125 237.433594 C 473.601562 233.882812 473.160156 230.339844 472.636719 226.808594 C 472.109375 223.277344 471.5 219.761719 470.800781 216.257812 C 470.105469 212.757812 469.320312 209.277344 468.453125 205.8125 C 467.585938 202.351562 466.632812 198.910156 465.59375 195.496094 C 464.558594 192.078125 463.4375 188.691406 462.234375 185.328125 C 461.03125 181.96875 459.746094 178.640625 458.378906 175.339844 C 457.011719 172.042969 455.5625 168.78125 454.035156 165.554688 C 452.511719 162.328125 450.90625 159.140625 449.222656 155.992188 C 447.539062 152.84375 445.777344 149.738281 443.945312 146.679688 C 442.109375 143.617188 440.199219 140.601562 438.214844 137.632812 C 436.230469 134.667969 434.175781 131.75 432.050781 128.882812 C 429.921875 126.015625 427.726562 123.203125 425.460938 120.441406 C 423.199219 117.683594 420.867188 114.980469 418.46875 112.335938 C 416.074219 109.691406 413.613281 107.109375 411.089844 104.585938 C 408.5625 102.0625 405.980469 99.601562 403.335938 97.203125 C 400.691406 94.804688 397.988281 92.476562 395.230469 90.210938 C 392.472656 87.945312 389.65625 85.753906 386.792969 83.625 C 383.925781 81.5 381.007812 79.445312 378.039062 77.460938 C 375.074219 75.480469 372.058594 73.570312 368.996094 71.734375 C 365.9375 69.902344 362.832031 68.140625 359.683594 66.460938 C 356.535156 64.777344 353.351562 63.171875 350.125 61.648438 C 346.898438 60.121094 343.636719 58.675781 340.339844 57.308594 C 337.042969 55.945312 333.714844 54.660156 330.351562 53.457031 C 326.992188 52.253906 323.605469 51.136719 320.191406 50.097656 C 316.773438 49.0625 313.335938 48.113281 309.875 47.246094 C 306.414062 46.378906 302.933594 45.59375 299.433594 44.898438 C 295.933594 44.203125 292.417969 43.59375 288.886719 43.070312 C 285.359375 42.546875 281.816406 42.109375 278.265625 41.757812 C 274.714844 41.410156 271.15625 41.148438 267.59375 40.972656 C 264.027344 40.796875 260.460938 40.707031 256.894531 40.707031 C 253.324219 40.707031 249.757812 40.796875 246.195312 40.972656 C 242.628906 41.148438 239.070312 41.410156 235.519531 41.757812 C 231.96875 42.109375 228.429688 42.546875 224.898438 43.070312 C 221.367188 43.59375 217.851562 44.203125 214.351562 44.898438 C 210.851562 45.59375 207.371094 46.378906 203.910156 47.246094 C 200.449219 48.113281 197.011719 49.0625 193.59375 50.097656 C 190.179688 51.136719 186.792969 52.253906 183.433594 53.457031 C 180.074219 54.660156 176.746094 55.945312 173.445312 57.308594 C 170.148438 58.675781 166.886719 60.121094 163.664062 61.648438 C 160.4375 63.171875 157.25 64.777344 154.101562 66.460938 C 150.953125 68.140625 147.851562 69.902344 144.789062 71.734375 C 141.726562 73.570312 138.714844 75.480469 135.746094 77.460938 C 132.777344 79.445312 129.863281 81.5 126.996094 83.625 C 124.128906 85.753906 121.316406 87.945312 118.554688 90.210938 C 115.796875 92.476562 113.09375 94.804688 110.449219 97.203125 C 107.804688 99.601562 105.222656 102.0625 102.699219 104.585938 C 100.171875 107.109375 97.714844 109.691406 95.316406 112.335938 C 92.917969 114.980469 90.585938 117.683594 88.324219 120.441406 C 86.058594 123.203125 83.863281 126.015625 81.734375 128.882812 C 79.609375 131.75 77.554688 134.667969 75.570312 137.632812 C 73.585938 140.601562 71.679688 143.617188 69.84375 146.679688 C 68.007812 149.738281 66.246094 152.84375 64.5625 155.992188 C 62.882812 159.140625 61.277344 162.328125 59.75 165.554688 C 58.222656 168.78125 56.773438 172.042969 55.410156 175.339844 C 54.042969 178.640625 52.757812 181.96875 51.554688 185.328125 C 50.347656 188.691406 49.230469 192.078125 48.191406 195.496094 C 47.15625 198.910156 46.203125 202.351562 45.332031 205.8125 C 44.464844 209.277344 43.679688 212.757812 42.984375 216.257812 C 42.285156 219.761719 41.675781 223.277344 41.148438 226.808594 C 40.625 230.339844 40.1875 233.882812 39.835938 237.433594 C 39.484375 240.988281 39.21875 244.546875 39.042969 248.113281 C 38.867188 251.675781 38.777344 255.246094 38.773438 258.816406 L 38.773438 805.25 C 38.773438 805.726562 38.867188 806.1875 39.050781 806.628906 C 39.230469 807.070312 39.492188 807.460938 39.832031 807.800781 C 40.167969 808.136719 40.558594 808.398438 41 808.582031 C 41.441406 808.765625 41.902344 808.855469 42.378906 808.855469 C 42.859375 808.855469 43.316406 808.765625 43.757812 808.582031 C 44.203125 808.398438 44.589844 808.136719 44.929688 807.800781 C 45.265625 807.460938 45.527344 807.070312 45.710938 806.628906 C 45.894531 806.1875 45.984375 805.726562 45.984375 805.25 L 45.984375 258.816406 C 45.984375 255.363281 46.070312 251.910156 46.238281 248.460938 C 46.410156 245.011719 46.664062 241.570312 47 238.132812 C 47.339844 234.695312 47.761719 231.269531 48.269531 227.855469 C 48.773438 224.441406 49.363281 221.039062 50.039062 217.652344 C 50.710938 214.265625 51.46875 210.894531 52.304688 207.546875 C 53.144531 204.195312 54.066406 200.871094 55.066406 197.566406 C 56.070312 194.261719 57.152344 190.984375 58.3125 187.730469 C 59.476562 184.480469 60.71875 181.257812 62.039062 178.070312 C 63.359375 174.878906 64.757812 171.722656 66.234375 168.601562 C 67.710938 165.480469 69.261719 162.394531 70.890625 159.351562 C 72.515625 156.304688 74.214844 153.300781 75.992188 150.339844 C 77.765625 147.378906 79.613281 144.460938 81.53125 141.589844 C 83.445312 138.71875 85.433594 135.898438 87.488281 133.125 C 89.546875 130.351562 91.667969 127.628906 93.859375 124.957031 C 96.046875 122.289062 98.300781 119.675781 100.621094 117.117188 C 102.9375 114.558594 105.316406 112.058594 107.757812 109.617188 C 110.199219 107.175781 112.699219 104.792969 115.257812 102.476562 C 117.8125 100.15625 120.425781 97.902344 123.09375 95.710938 C 125.761719 93.519531 128.484375 91.394531 131.253906 89.339844 C 134.027344 87.28125 136.847656 85.292969 139.71875 83.375 C 142.589844 81.457031 145.503906 79.609375 148.464844 77.835938 C 151.425781 76.058594 154.425781 74.359375 157.472656 72.730469 C 160.515625 71.101562 163.597656 69.550781 166.71875 68.074219 C 169.839844 66.597656 172.992188 65.199219 176.183594 63.878906 C 179.371094 62.554688 182.589844 61.3125 185.839844 60.148438 C 189.089844 58.988281 192.367188 57.902344 195.667969 56.902344 C 198.972656 55.898438 202.296875 54.980469 205.648438 54.140625 C 208.996094 53.300781 212.363281 52.542969 215.746094 51.871094 C 219.132812 51.195312 222.53125 50.605469 225.945312 50.101562 C 229.359375 49.59375 232.785156 49.171875 236.21875 48.832031 C 239.65625 48.492188 243.097656 48.238281 246.542969 48.070312 C 249.992188 47.902344 253.441406 47.816406 256.894531 47.816406 C 260.34375 47.816406 263.792969 47.902344 267.242188 48.070312 C 270.6875 48.238281 274.128906 48.492188 277.566406 48.832031 C 281 49.171875 284.425781 49.59375 287.839844 50.101562 C 291.253906 50.605469 294.652344 51.195312 298.039062 51.871094 C 301.425781 52.542969 304.792969 53.300781 308.140625 54.140625 C 311.488281 54.980469 314.8125 55.898438 318.117188 56.902344 C 321.417969 57.902344 324.695312 58.988281 327.945312 60.148438 C 331.195312 61.3125 334.414062 62.554688 337.605469 63.878906 C 340.792969 65.199219 343.949219 66.597656 347.066406 68.074219 C 350.1875 69.550781 353.269531 71.101562 356.3125 72.730469 C 359.359375 74.359375 362.359375 76.058594 365.320312 77.835938 C 368.28125 79.609375 371.195312 81.457031 374.066406 83.375 C 376.9375 85.292969 379.757812 87.28125 382.53125 89.339844 C 385.304688 91.394531 388.023438 93.519531 390.691406 95.710938 C 393.359375 97.902344 395.972656 100.15625 398.53125 102.476562 C 401.085938 104.792969 403.585938 107.175781 406.027344 109.617188 C 408.46875 112.058594 410.847656 114.558594 413.164062 117.117188 C 415.484375 119.675781 417.738281 122.289062 419.925781 124.957031 C 422.117188 127.628906 424.238281 130.351562 426.296875 133.125 C 428.351562 135.898438 430.339844 138.71875 432.257812 141.589844 C 434.175781 144.460938 436.019531 147.378906 437.792969 150.339844 C 439.570312 153.300781 441.269531 156.304688 442.898438 159.351562 C 444.523438 162.394531 446.074219 165.480469 447.550781 168.601562 C 449.027344 171.722656 450.425781 174.878906 451.746094 178.070312 C 453.066406 181.257812 454.308594 184.480469 455.472656 187.730469 C 456.636719 190.984375 457.71875 194.261719 458.71875 197.566406 C 459.722656 200.871094 460.640625 204.195312 461.480469 207.546875 C 462.320312 210.894531 463.074219 214.265625 463.75 217.652344 C 464.421875 221.039062 465.011719 224.441406 465.519531 227.855469 C 466.023438 231.269531 466.445312 234.695312 466.785156 238.132812 C 467.125 241.570312 467.378906 245.011719 467.546875 248.460938 C 467.714844 251.910156 467.800781 255.363281 467.800781 258.816406 L 467.800781 805.25 C 467.800781 805.726562 467.890625 806.1875 468.074219 806.628906 C 468.257812 807.070312 468.519531 807.460938 468.855469 807.800781 C 469.195312 808.136719 469.585938 808.398438 470.027344 808.582031 C 470.46875 808.765625 470.929688 808.855469 471.40625 808.855469 C 471.882812 808.855469 472.34375 808.765625 472.785156 808.582031 C 473.226562 808.398438 473.617188 808.136719 473.957031 807.800781 C 474.292969 807.460938 474.554688 807.070312 474.738281 806.628906 C 474.917969 806.1875 475.011719 805.726562 475.011719 805.25 Z M 436.238281 805.125 L 436.238281 259.484375 C 436.238281 256.546875 436.164062 253.613281 436.019531 250.683594 C 435.875 247.75 435.660156 244.824219 435.375 241.90625 C 435.085938 238.984375 434.726562 236.074219 434.296875 233.167969 C 433.867188 230.265625 433.363281 227.375 432.792969 224.496094 C 432.21875 221.617188 431.578125 218.753906 430.863281 215.910156 C 430.152344 213.0625 429.371094 210.234375 428.519531 207.425781 C 427.667969 204.617188 426.746094 201.832031 425.757812 199.066406 C 424.769531 196.304688 423.714844 193.566406 422.59375 190.855469 C 421.46875 188.144531 420.28125 185.460938 419.027344 182.808594 C 417.773438 180.15625 416.453125 177.535156 415.070312 174.945312 C 413.6875 172.359375 412.242188 169.804688 410.734375 167.289062 C 409.226562 164.769531 407.65625 162.292969 406.027344 159.851562 C 404.398438 157.410156 402.707031 155.011719 400.960938 152.65625 C 399.214844 150.296875 397.410156 147.984375 395.546875 145.714844 C 393.6875 143.449219 391.769531 141.226562 389.800781 139.050781 C 387.832031 136.875 385.808594 134.75 383.734375 132.675781 C 381.660156 130.601562 379.535156 128.578125 377.363281 126.605469 C 375.1875 124.636719 372.96875 122.71875 370.699219 120.859375 C 368.433594 118.996094 366.121094 117.191406 363.765625 115.441406 C 361.40625 113.695312 359.011719 112.003906 356.570312 110.375 C 354.132812 108.742188 351.652344 107.171875 349.136719 105.664062 C 346.621094 104.15625 344.070312 102.710938 341.484375 101.328125 C 338.894531 99.941406 336.277344 98.625 333.625 97.367188 C 330.972656 96.113281 328.289062 94.925781 325.582031 93.800781 C 322.871094 92.679688 320.132812 91.621094 317.371094 90.632812 C 314.609375 89.644531 311.824219 88.726562 309.019531 87.875 C 306.210938 87.019531 303.382812 86.238281 300.539062 85.527344 C 297.691406 84.8125 294.832031 84.167969 291.953125 83.597656 C 289.078125 83.023438 286.1875 82.523438 283.285156 82.09375 C 280.382812 81.660156 277.472656 81.300781 274.554688 81.015625 C 271.632812 80.726562 268.707031 80.511719 265.777344 80.367188 C 262.847656 80.222656 259.917969 80.152344 256.984375 80.152344 C 254.050781 80.152344 251.117188 80.222656 248.1875 80.367188 C 245.257812 80.511719 242.332031 80.726562 239.414062 81.015625 C 236.492188 81.300781 233.582031 81.660156 230.679688 82.09375 C 227.777344 82.523438 224.890625 83.023438 222.011719 83.597656 C 219.136719 84.167969 216.273438 84.8125 213.429688 85.527344 C 210.582031 86.238281 207.753906 87.019531 204.949219 87.875 C 202.140625 88.726562 199.355469 89.644531 196.59375 90.632812 C 193.832031 91.621094 191.097656 92.679688 188.386719 93.800781 C 185.675781 94.925781 182.996094 96.113281 180.34375 97.367188 C 177.691406 98.625 175.070312 99.941406 172.484375 101.328125 C 169.894531 102.710938 167.34375 104.15625 164.828125 105.664062 C 162.3125 107.171875 159.835938 108.742188 157.394531 110.375 C 154.957031 112.003906 152.558594 113.695312 150.203125 115.441406 C 147.84375 117.191406 145.535156 118.996094 143.265625 120.859375 C 141 122.71875 138.777344 124.636719 136.605469 126.605469 C 134.429688 128.578125 132.304688 130.601562 130.230469 132.675781 C 128.15625 134.75 126.136719 136.875 124.164062 139.050781 C 122.195312 141.226562 120.277344 143.449219 118.417969 145.714844 C 116.558594 147.984375 114.753906 150.296875 113.003906 152.65625 C 111.257812 155.011719 109.570312 157.410156 107.9375 159.851562 C 106.308594 162.292969 104.742188 164.769531 103.230469 167.289062 C 101.722656 169.804688 100.277344 172.359375 98.894531 174.945312 C 97.511719 177.535156 96.195312 180.15625 94.941406 182.808594 C 93.683594 185.460938 92.496094 188.144531 91.375 190.855469 C 90.25 193.566406 89.195312 196.304688 88.207031 199.066406 C 87.21875 201.832031 86.300781 204.617188 85.449219 207.425781 C 84.597656 210.234375 83.8125 213.0625 83.101562 215.910156 C 82.386719 218.753906 81.746094 221.617188 81.171875 224.496094 C 80.601562 227.375 80.101562 230.265625 79.667969 233.167969 C 79.238281 236.074219 78.878906 238.984375 78.59375 241.90625 C 78.304688 244.824219 78.089844 247.75 77.945312 250.683594 C 77.800781 253.613281 77.730469 256.546875 77.730469 259.484375 L 77.730469 805.125 C 77.730469 805.601562 77.820312 806.0625 78.003906 806.503906 C 78.1875 806.945312 78.449219 807.335938 78.785156 807.671875 C 79.125 808.011719 79.511719 808.273438 79.953125 808.457031 C 80.398438 808.636719 80.855469 808.730469 81.335938 808.730469 C 81.8125 808.730469 82.273438 808.636719 82.714844 808.457031 C 83.15625 808.273438 83.546875 808.011719 83.882812 807.671875 C 84.222656 807.335938 84.484375 806.945312 84.664062 806.503906 C 84.847656 806.0625 84.941406 805.601562 84.941406 805.125 L 84.941406 259.484375 C 84.941406 256.664062 85.007812 253.851562 85.148438 251.039062 C 85.285156 248.222656 85.492188 245.414062 85.769531 242.613281 C 86.042969 239.808594 86.390625 237.015625 86.800781 234.226562 C 87.214844 231.441406 87.695312 228.667969 88.246094 225.902344 C 88.796875 223.140625 89.410156 220.394531 90.097656 217.660156 C 90.78125 214.929688 91.53125 212.214844 92.347656 209.519531 C 93.164062 206.824219 94.046875 204.148438 94.996094 201.496094 C 95.945312 198.847656 96.957031 196.21875 98.035156 193.617188 C 99.113281 191.011719 100.253906 188.4375 101.457031 185.894531 C 102.660156 183.347656 103.925781 180.832031 105.253906 178.347656 C 106.582031 175.863281 107.96875 173.414062 109.417969 170.996094 C 110.863281 168.582031 112.371094 166.203125 113.933594 163.859375 C 115.5 161.515625 117.121094 159.214844 118.796875 156.953125 C 120.472656 154.691406 122.207031 152.46875 123.992188 150.292969 C 125.777344 148.113281 127.617188 145.984375 129.507812 143.894531 C 131.398438 141.808594 133.339844 139.769531 135.332031 137.777344 C 137.320312 135.785156 139.359375 133.84375 141.445312 131.953125 C 143.53125 130.058594 145.664062 128.222656 147.839844 126.433594 C 150.015625 124.648438 152.234375 122.914062 154.496094 121.238281 C 156.757812 119.558594 159.058594 117.9375 161.402344 116.371094 C 163.742188 114.808594 166.121094 113.300781 168.535156 111.851562 C 170.949219 110.402344 173.398438 109.015625 175.882812 107.6875 C 178.367188 106.359375 180.878906 105.09375 183.425781 103.890625 C 185.96875 102.6875 188.542969 101.542969 191.144531 100.464844 C 193.746094 99.386719 196.371094 98.375 199.023438 97.425781 C 201.675781 96.476562 204.347656 95.59375 207.042969 94.777344 C 209.734375 93.957031 212.449219 93.207031 215.179688 92.523438 C 217.910156 91.839844 220.65625 91.222656 223.417969 90.671875 C 226.179688 90.121094 228.953125 89.640625 231.738281 89.226562 C 234.523438 88.816406 237.316406 88.46875 240.121094 88.195312 C 242.921875 87.917969 245.730469 87.710938 248.542969 87.570312 C 251.355469 87.433594 254.167969 87.363281 256.984375 87.363281 C 259.796875 87.363281 262.613281 87.433594 265.425781 87.570312 C 268.238281 87.710938 271.042969 87.917969 273.847656 88.195312 C 276.648438 88.46875 279.441406 88.816406 282.226562 89.226562 C 285.011719 89.640625 287.785156 90.121094 290.546875 90.671875 C 293.308594 91.222656 296.054688 91.839844 298.785156 92.523438 C 301.515625 93.207031 304.230469 93.957031 306.925781 94.777344 C 309.617188 95.59375 312.292969 96.476562 314.941406 97.425781 C 317.59375 98.375 320.21875 99.386719 322.820312 100.464844 C 325.421875 101.542969 327.996094 102.6875 330.542969 103.890625 C 333.085938 105.09375 335.601562 106.359375 338.082031 107.6875 C 340.566406 109.015625 343.015625 110.402344 345.429688 111.851562 C 347.847656 113.300781 350.222656 114.808594 352.566406 116.371094 C 354.90625 117.9375 357.207031 119.558594 359.46875 121.238281 C 361.730469 122.914062 363.949219 124.648438 366.125 126.433594 C 368.300781 128.222656 370.433594 130.058594 372.519531 131.953125 C 374.605469 133.84375 376.644531 135.785156 378.636719 137.777344 C 380.625 139.769531 382.566406 141.808594 384.457031 143.894531 C 386.347656 145.984375 388.1875 148.113281 389.972656 150.292969 C 391.761719 152.46875 393.492188 154.691406 395.167969 156.953125 C 396.847656 159.214844 398.46875 161.515625 400.03125 163.859375 C 401.597656 166.203125 403.101562 168.582031 404.550781 170.996094 C 405.996094 173.414062 407.382812 175.863281 408.710938 178.347656 C 410.039062 180.832031 411.304688 183.347656 412.507812 185.894531 C 413.710938 188.4375 414.851562 191.011719 415.929688 193.617188 C 417.007812 196.21875 418.019531 198.847656 418.96875 201.496094 C 419.917969 204.148438 420.800781 206.824219 421.617188 209.519531 C 422.433594 212.214844 423.1875 214.929688 423.871094 217.660156 C 424.554688 220.394531 425.171875 223.140625 425.71875 225.902344 C 426.269531 228.667969 426.75 231.441406 427.164062 234.226562 C 427.578125 237.015625 427.921875 239.808594 428.199219 242.613281 C 428.472656 245.414062 428.679688 248.222656 428.820312 251.039062 C 428.957031 253.851562 429.027344 256.664062 429.027344 259.484375 L 429.027344 805.125 C 429.027344 805.601562 429.117188 806.0625 429.300781 806.503906 C 429.484375 806.945312 429.742188 807.335938 430.082031 807.671875 C 430.421875 808.011719 430.808594 808.273438 431.25 808.457031 C 431.695312 808.636719 432.152344 808.730469 432.632812 808.730469 C 433.109375 808.730469 433.570312 808.636719 434.011719 808.457031 C 434.453125 808.273438 434.84375 808.011719 435.179688 807.671875 C 435.519531 807.335938 435.78125 806.945312 435.960938 806.503906 C 436.144531 806.0625 436.238281 805.601562 436.238281 805.125 Z M 397.390625 805.015625 L 397.390625 260.203125 C 397.417969 257.886719 397.386719 255.574219 397.296875 253.257812 C 397.207031 250.945312 397.0625 248.636719 396.859375 246.328125 C 396.660156 244.019531 396.398438 241.722656 396.082031 239.425781 C 395.765625 237.132812 395.394531 234.847656 394.964844 232.570312 C 394.535156 230.296875 394.050781 228.03125 393.511719 225.78125 C 392.96875 223.53125 392.375 221.292969 391.722656 219.070312 C 391.070312 216.847656 390.363281 214.644531 389.605469 212.457031 C 388.84375 210.269531 388.03125 208.101562 387.160156 205.957031 C 386.292969 203.808594 385.375 201.683594 384.402344 199.582031 C 383.429688 197.480469 382.40625 195.40625 381.328125 193.355469 C 380.253906 191.304688 379.128906 189.28125 377.953125 187.285156 C 376.777344 185.289062 375.554688 183.324219 374.28125 181.390625 C 373.011719 179.457031 371.691406 177.554688 370.324219 175.6875 C 368.957031 173.816406 367.546875 171.980469 366.089844 170.183594 C 364.632812 168.382812 363.132812 166.621094 361.589844 164.894531 C 360.042969 163.171875 358.457031 161.484375 356.832031 159.835938 C 355.203125 158.191406 353.535156 156.585938 351.828125 155.019531 C 350.121094 153.457031 348.378906 151.9375 346.597656 150.457031 C 344.8125 148.980469 342.996094 147.546875 341.144531 146.160156 C 339.289062 144.769531 337.40625 143.429688 335.484375 142.132812 C 333.566406 140.839844 331.617188 139.59375 329.636719 138.394531 C 327.65625 137.195312 325.644531 136.046875 323.609375 134.949219 C 321.570312 133.851562 319.507812 132.804688 317.417969 131.804688 C 315.328125 130.808594 313.214844 129.863281 311.078125 128.972656 C 308.945312 128.082031 306.785156 127.242188 304.609375 126.457031 C 302.433594 125.671875 300.238281 124.9375 298.023438 124.261719 C 295.808594 123.585938 293.582031 122.964844 291.335938 122.398438 C 289.089844 121.828125 286.835938 121.320312 284.566406 120.863281 C 282.296875 120.410156 280.015625 120.011719 277.726562 119.667969 C 275.4375 119.324219 273.140625 119.039062 270.835938 118.8125 C 268.535156 118.582031 266.226562 118.410156 263.914062 118.296875 C 261.601562 118.183594 259.289062 118.125 256.972656 118.125 C 254.660156 118.125 252.347656 118.183594 250.035156 118.296875 C 247.722656 118.410156 245.414062 118.582031 243.109375 118.8125 C 240.808594 119.039062 238.511719 119.324219 236.222656 119.667969 C 233.933594 120.011719 231.652344 120.410156 229.382812 120.863281 C 227.113281 121.320312 224.855469 121.828125 222.613281 122.398438 C 220.367188 122.964844 218.140625 123.585938 215.925781 124.261719 C 213.710938 124.9375 211.515625 125.671875 209.339844 126.457031 C 207.160156 127.242188 205.003906 128.082031 202.867188 128.972656 C 200.730469 129.863281 198.621094 130.808594 196.53125 131.804688 C 194.441406 132.804688 192.378906 133.851562 190.339844 134.949219 C 188.300781 136.046875 186.292969 137.195312 184.3125 138.394531 C 182.332031 139.59375 180.382812 140.839844 178.460938 142.132812 C 176.542969 143.429688 174.65625 144.769531 172.804688 146.160156 C 170.953125 147.546875 169.132812 148.980469 167.351562 150.457031 C 165.570312 151.9375 163.824219 153.457031 162.117188 155.019531 C 160.410156 156.585938 158.746094 158.191406 157.117188 159.835938 C 155.488281 161.484375 153.902344 163.171875 152.359375 164.894531 C 150.816406 166.621094 149.316406 168.382812 147.859375 170.183594 C 146.402344 171.980469 144.988281 173.816406 143.625 175.6875 C 142.257812 177.554688 140.9375 179.457031 139.664062 181.390625 C 138.394531 183.324219 137.167969 185.289062 135.992188 187.285156 C 134.820312 189.28125 133.695312 191.304688 132.617188 193.355469 C 131.542969 195.40625 130.519531 197.480469 129.546875 199.582031 C 128.574219 201.683594 127.652344 203.808594 126.785156 205.957031 C 125.917969 208.101562 125.105469 210.269531 124.34375 212.457031 C 123.582031 214.644531 122.878906 216.847656 122.226562 219.070312 C 121.574219 221.292969 120.976562 223.53125 120.4375 225.78125 C 119.894531 228.03125 119.410156 230.296875 118.980469 232.570312 C 118.554688 234.847656 118.179688 237.132812 117.863281 239.425781 C 117.546875 241.722656 117.289062 244.019531 117.085938 246.328125 C 116.882812 248.636719 116.738281 250.945312 116.652344 253.257812 C 116.5625 255.574219 116.53125 257.886719 116.558594 260.203125 L 116.558594 805.015625 C 116.558594 805.492188 116.648438 805.953125 116.832031 806.394531 C 117.015625 806.835938 117.277344 807.226562 117.613281 807.566406 C 117.953125 807.902344 118.34375 808.164062 118.785156 808.347656 C 119.226562 808.53125 119.683594 808.621094 120.164062 808.621094 C 120.640625 808.621094 121.101562 808.53125 121.542969 808.347656 C 121.984375 808.164062 122.375 807.902344 122.710938 807.566406 C 123.050781 807.226562 123.3125 806.835938 123.496094 806.394531 C 123.675781 805.953125 123.769531 805.492188 123.769531 805.015625 L 123.769531 260.203125 C 123.742188 258.007812 123.773438 255.808594 123.855469 253.613281 C 123.9375 251.417969 124.074219 249.226562 124.265625 247.039062 C 124.457031 244.847656 124.703125 242.667969 125.003906 240.488281 C 125.300781 238.3125 125.65625 236.144531 126.0625 233.984375 C 126.46875 231.824219 126.925781 229.679688 127.441406 227.542969 C 127.953125 225.40625 128.519531 223.28125 129.136719 221.171875 C 129.753906 219.066406 130.421875 216.972656 131.144531 214.898438 C 131.863281 212.824219 132.636719 210.765625 133.460938 208.730469 C 134.28125 206.691406 135.15625 204.675781 136.078125 202.679688 C 137 200.6875 137.972656 198.71875 138.992188 196.769531 C 140.011719 194.824219 141.078125 192.90625 142.191406 191.011719 C 143.308594 189.121094 144.46875 187.253906 145.675781 185.417969 C 146.882812 183.582031 148.132812 181.777344 149.429688 180.003906 C 150.726562 178.230469 152.066406 176.488281 153.445312 174.78125 C 154.828125 173.074219 156.253906 171.402344 157.71875 169.765625 C 159.183594 168.128906 160.6875 166.527344 162.230469 164.964844 C 163.773438 163.402344 165.355469 161.878906 166.976562 160.394531 C 168.59375 158.910156 170.25 157.464844 171.941406 156.0625 C 173.632812 154.660156 175.355469 153.300781 177.113281 151.984375 C 178.871094 150.667969 180.660156 149.394531 182.480469 148.164062 C 184.300781 146.9375 186.152344 145.753906 188.03125 144.617188 C 189.910156 143.480469 191.816406 142.390625 193.75 141.347656 C 195.683594 140.304688 197.640625 139.308594 199.625 138.363281 C 201.605469 137.417969 203.609375 136.519531 205.636719 135.675781 C 207.664062 134.828125 209.710938 134.03125 211.777344 133.285156 C 213.84375 132.539062 215.925781 131.847656 218.027344 131.203125 C 220.125 130.5625 222.242188 129.972656 224.371094 129.433594 C 226.5 128.894531 228.640625 128.410156 230.796875 127.980469 C 232.949219 127.546875 235.113281 127.167969 237.285156 126.84375 C 239.457031 126.519531 241.636719 126.25 243.820312 126.03125 C 246.007812 125.816406 248.195312 125.652344 250.390625 125.542969 C 252.582031 125.433594 254.777344 125.382812 256.972656 125.382812 C 259.171875 125.382812 261.367188 125.433594 263.558594 125.542969 C 265.753906 125.652344 267.941406 125.816406 270.128906 126.03125 C 272.3125 126.25 274.492188 126.519531 276.664062 126.84375 C 278.835938 127.167969 281 127.546875 283.152344 127.980469 C 285.304688 128.410156 287.449219 128.894531 289.578125 129.433594 C 291.707031 129.972656 293.820312 130.5625 295.921875 131.203125 C 298.023438 131.847656 300.105469 132.539062 302.171875 133.285156 C 304.238281 134.03125 306.285156 134.828125 308.3125 135.675781 C 310.335938 136.519531 312.34375 137.417969 314.324219 138.363281 C 316.308594 139.308594 318.265625 140.304688 320.199219 141.347656 C 322.132812 142.390625 324.039062 143.480469 325.917969 144.617188 C 327.796875 145.753906 329.644531 146.9375 331.464844 148.164062 C 333.289062 149.394531 335.078125 150.667969 336.835938 151.984375 C 338.59375 153.300781 340.316406 154.660156 342.007812 156.0625 C 343.699219 157.464844 345.351562 158.910156 346.972656 160.394531 C 348.59375 161.878906 350.171875 163.402344 351.71875 164.964844 C 353.261719 166.527344 354.765625 168.128906 356.230469 169.765625 C 357.695312 171.402344 359.117188 173.074219 360.5 174.78125 C 361.882812 176.488281 363.222656 178.230469 364.519531 180.003906 C 365.816406 181.777344 367.066406 183.582031 368.273438 185.417969 C 369.480469 187.253906 370.640625 189.121094 371.753906 191.011719 C 372.871094 192.90625 373.9375 194.824219 374.957031 196.769531 C 375.976562 198.71875 376.949219 200.6875 377.871094 202.679688 C 378.792969 204.675781 379.664062 206.691406 380.488281 208.730469 C 381.3125 210.765625 382.082031 212.824219 382.804688 214.898438 C 383.523438 216.972656 384.195312 219.066406 384.8125 221.171875 C 385.429688 223.28125 385.996094 225.40625 386.507812 227.542969 C 387.019531 229.679688 387.480469 231.824219 387.886719 233.984375 C 388.292969 236.144531 388.644531 238.3125 388.945312 240.488281 C 389.246094 242.667969 389.492188 244.847656 389.683594 247.039062 C 389.875 249.226562 390.011719 251.417969 390.09375 253.613281 C 390.175781 255.808594 390.207031 258.007812 390.179688 260.203125 L 390.179688 805.015625 C 390.179688 805.492188 390.269531 805.953125 390.453125 806.394531 C 390.636719 806.835938 390.898438 807.226562 391.234375 807.566406 C 391.574219 807.902344 391.964844 808.164062 392.40625 808.347656 C 392.847656 808.53125 393.308594 808.621094 393.785156 808.621094 C 394.261719 808.621094 394.722656 808.53125 395.164062 808.347656 C 395.605469 808.164062 395.996094 807.902344 396.335938 807.566406 C 396.671875 807.226562 396.933594 806.835938 397.117188 806.394531 C 397.296875 805.953125 397.390625 805.492188 397.390625 805.015625 Z M 358.5625 804.890625 L 358.5625 260.90625 C 358.5625 259.246094 358.519531 257.582031 358.4375 255.921875 C 358.359375 254.261719 358.234375 252.601562 358.074219 250.945312 C 357.910156 249.292969 357.707031 247.640625 357.460938 245.996094 C 357.21875 244.351562 356.933594 242.714844 356.609375 241.082031 C 356.285156 239.449219 355.921875 237.828125 355.515625 236.214844 C 355.113281 234.601562 354.671875 233 354.1875 231.40625 C 353.703125 229.816406 353.183594 228.238281 352.625 226.671875 C 352.0625 225.105469 351.464844 223.554688 350.828125 222.019531 C 350.191406 220.480469 349.519531 218.960938 348.808594 217.457031 C 348.097656 215.953125 347.351562 214.46875 346.566406 213.003906 C 345.785156 211.535156 344.964844 210.089844 344.109375 208.664062 C 343.253906 207.238281 342.367188 205.832031 341.441406 204.449219 C 340.519531 203.066406 339.5625 201.707031 338.570312 200.371094 C 337.582031 199.035156 336.558594 197.722656 335.503906 196.4375 C 334.449219 195.152344 333.363281 193.894531 332.246094 192.660156 C 331.132812 191.429688 329.984375 190.226562 328.808594 189.050781 C 327.632812 187.875 326.429688 186.726562 325.199219 185.609375 C 323.96875 184.492188 322.707031 183.40625 321.421875 182.351562 C 320.136719 181.296875 318.828125 180.273438 317.492188 179.285156 C 316.15625 178.292969 314.800781 177.335938 313.417969 176.410156 C 312.035156 175.488281 310.628906 174.597656 309.203125 173.742188 C 307.777344 172.886719 306.332031 172.070312 304.867188 171.285156 C 303.402344 170.5 301.917969 169.753906 300.414062 169.042969 C 298.910156 168.332031 297.390625 167.65625 295.855469 167.019531 C 294.320312 166.382812 292.769531 165.785156 291.203125 165.226562 C 289.636719 164.664062 288.0625 164.144531 286.46875 163.660156 C 284.878906 163.179688 283.277344 162.734375 281.664062 162.332031 C 280.050781 161.925781 278.429688 161.5625 276.800781 161.238281 C 275.167969 160.914062 273.53125 160.628906 271.886719 160.386719 C 270.242188 160.140625 268.59375 159.9375 266.941406 159.773438 C 265.285156 159.613281 263.628906 159.488281 261.96875 159.40625 C 260.308594 159.324219 258.644531 159.285156 256.984375 159.285156 C 255.320312 159.285156 253.660156 159.324219 252 159.40625 C 250.339844 159.488281 248.679688 159.613281 247.027344 159.773438 C 245.371094 159.9375 243.722656 160.140625 242.078125 160.386719 C 240.433594 160.628906 238.796875 160.914062 237.167969 161.238281 C 235.535156 161.5625 233.914062 161.925781 232.300781 162.332031 C 230.6875 162.734375 229.085938 163.179688 227.496094 163.660156 C 225.90625 164.144531 224.328125 164.664062 222.761719 165.226562 C 221.195312 165.785156 219.648438 166.382812 218.109375 167.019531 C 216.574219 167.65625 215.054688 168.332031 213.554688 169.042969 C 212.050781 169.753906 210.566406 170.5 209.097656 171.285156 C 207.632812 172.070312 206.1875 172.886719 204.761719 173.742188 C 203.335938 174.597656 201.929688 175.488281 200.550781 176.410156 C 199.167969 177.335938 197.808594 178.292969 196.472656 179.285156 C 195.136719 180.273438 193.828125 181.296875 192.542969 182.351562 C 191.257812 183.40625 190 184.492188 188.765625 185.609375 C 187.535156 186.726562 186.332031 187.875 185.15625 189.050781 C 183.980469 190.226562 182.835938 191.429688 181.71875 192.660156 C 180.601562 193.894531 179.515625 195.152344 178.460938 196.4375 C 177.40625 197.722656 176.386719 199.035156 175.394531 200.371094 C 174.40625 201.707031 173.449219 203.066406 172.523438 204.449219 C 171.601562 205.832031 170.710938 207.238281 169.855469 208.664062 C 169 210.089844 168.183594 211.535156 167.398438 213.003906 C 166.617188 214.46875 165.867188 215.953125 165.15625 217.457031 C 164.445312 218.960938 163.773438 220.480469 163.136719 222.019531 C 162.5 223.554688 161.902344 225.105469 161.34375 226.671875 C 160.78125 228.238281 160.261719 229.816406 159.777344 231.40625 C 159.296875 233 158.851562 234.601562 158.449219 236.214844 C 158.046875 237.828125 157.679688 239.449219 157.355469 241.082031 C 157.03125 242.714844 156.75 244.351562 156.503906 245.996094 C 156.261719 247.640625 156.058594 249.292969 155.894531 250.945312 C 155.730469 252.601562 155.609375 254.261719 155.527344 255.921875 C 155.445312 257.582031 155.40625 259.246094 155.40625 260.90625 L 155.40625 804.890625 C 155.40625 805.367188 155.496094 805.828125 155.679688 806.269531 C 155.863281 806.710938 156.121094 807.101562 156.460938 807.4375 C 156.800781 807.777344 157.1875 808.039062 157.628906 808.222656 C 158.070312 808.402344 158.53125 808.496094 159.011719 808.496094 C 159.488281 808.496094 159.949219 808.402344 160.390625 808.222656 C 160.832031 808.039062 161.222656 807.777344 161.558594 807.4375 C 161.898438 807.101562 162.15625 806.710938 162.339844 806.269531 C 162.523438 805.828125 162.617188 805.367188 162.617188 804.890625 L 162.617188 260.90625 C 162.617188 259.363281 162.652344 257.816406 162.730469 256.273438 C 162.804688 254.730469 162.917969 253.191406 163.070312 251.652344 C 163.222656 250.117188 163.410156 248.582031 163.636719 247.054688 C 163.863281 245.527344 164.128906 244.003906 164.429688 242.488281 C 164.730469 240.972656 165.066406 239.464844 165.445312 237.96875 C 165.820312 236.46875 166.230469 234.980469 166.679688 233.503906 C 167.128906 232.023438 167.613281 230.558594 168.132812 229.101562 C 168.652344 227.648438 169.207031 226.207031 169.796875 224.777344 C 170.390625 223.351562 171.015625 221.9375 171.675781 220.542969 C 172.335938 219.144531 173.03125 217.765625 173.757812 216.402344 C 174.484375 215.039062 175.246094 213.695312 176.042969 212.371094 C 176.835938 211.046875 177.660156 209.742188 178.519531 208.457031 C 179.378906 207.171875 180.265625 205.910156 181.1875 204.667969 C 182.105469 203.425781 183.054688 202.210938 184.035156 201.015625 C 185.015625 199.820312 186.023438 198.652344 187.0625 197.507812 C 188.097656 196.363281 189.164062 195.242188 190.253906 194.148438 C 191.347656 193.058594 192.464844 191.992188 193.609375 190.957031 C 194.753906 189.917969 195.921875 188.910156 197.117188 187.929688 C 198.3125 186.949219 199.527344 185.996094 200.769531 185.078125 C 202.007812 184.15625 203.269531 183.269531 204.554688 182.410156 C 205.839844 181.550781 207.144531 180.726562 208.46875 179.929688 C 209.792969 179.136719 211.136719 178.375 212.5 177.644531 C 213.859375 176.917969 215.238281 176.222656 216.636719 175.5625 C 218.03125 174.902344 219.441406 174.277344 220.871094 173.683594 C 222.296875 173.09375 223.738281 172.539062 225.191406 172.015625 C 226.644531 171.496094 228.113281 171.011719 229.589844 170.5625 C 231.066406 170.117188 232.554688 169.703125 234.054688 169.328125 C 235.550781 168.953125 237.058594 168.613281 238.574219 168.3125 C 240.085938 168.011719 241.609375 167.746094 243.136719 167.519531 C 244.664062 167.292969 246.195312 167.105469 247.734375 166.953125 C 249.269531 166.800781 250.808594 166.6875 252.351562 166.613281 C 253.894531 166.535156 255.4375 166.5 256.984375 166.5 C 258.527344 166.5 260.070312 166.535156 261.613281 166.613281 C 263.15625 166.6875 264.695312 166.800781 266.234375 166.953125 C 267.769531 167.105469 269.300781 167.292969 270.828125 167.519531 C 272.359375 167.746094 273.878906 168.011719 275.394531 168.3125 C 276.90625 168.613281 278.414062 168.953125 279.914062 169.328125 C 281.410156 169.703125 282.898438 170.117188 284.375 170.5625 C 285.855469 171.011719 287.320312 171.496094 288.773438 172.015625 C 290.230469 172.539062 291.667969 173.09375 293.097656 173.683594 C 294.523438 174.277344 295.933594 174.902344 297.332031 175.5625 C 298.726562 176.222656 300.105469 176.917969 301.46875 177.644531 C 302.828125 178.375 304.171875 179.136719 305.496094 179.929688 C 306.824219 180.726562 308.125 181.550781 309.410156 182.410156 C 310.695312 183.269531 311.957031 184.15625 313.199219 185.078125 C 314.4375 185.996094 315.65625 186.949219 316.847656 187.929688 C 318.042969 188.910156 319.210938 189.917969 320.355469 190.957031 C 321.5 191.992188 322.617188 193.058594 323.710938 194.148438 C 324.804688 195.242188 325.867188 196.363281 326.90625 197.507812 C 327.941406 198.652344 328.949219 199.820312 329.929688 201.015625 C 330.910156 202.210938 331.859375 203.425781 332.78125 204.667969 C 333.699219 205.910156 334.589844 207.171875 335.445312 208.457031 C 336.304688 209.742188 337.132812 211.046875 337.925781 212.371094 C 338.71875 213.695312 339.480469 215.039062 340.207031 216.402344 C 340.9375 217.765625 341.628906 219.144531 342.289062 220.542969 C 342.949219 221.9375 343.578125 223.351562 344.167969 224.777344 C 344.757812 226.207031 345.3125 227.648438 345.835938 229.101562 C 346.355469 230.558594 346.839844 232.023438 347.289062 233.503906 C 347.734375 234.980469 348.148438 236.46875 348.523438 237.96875 C 348.898438 239.464844 349.234375 240.972656 349.539062 242.488281 C 349.839844 244.003906 350.101562 245.527344 350.328125 247.054688 C 350.554688 248.582031 350.746094 250.117188 350.894531 251.652344 C 351.046875 253.191406 351.160156 254.730469 351.238281 256.273438 C 351.3125 257.816406 351.351562 259.363281 351.351562 260.90625 L 351.351562 804.890625 C 351.351562 805.367188 351.441406 805.828125 351.625 806.269531 C 351.808594 806.710938 352.070312 807.101562 352.40625 807.4375 C 352.746094 807.777344 353.132812 808.039062 353.578125 808.222656 C 354.019531 808.402344 354.476562 808.496094 354.957031 808.496094 C 355.433594 808.496094 355.894531 808.402344 356.335938 808.222656 C 356.777344 808.039062 357.167969 807.777344 357.503906 807.4375 C 357.84375 807.101562 358.105469 806.710938 358.285156 806.269531 C 358.46875 805.828125 358.5625 805.367188 358.5625 804.890625 Z M 319.714844 804.78125 L 319.714844 261.609375 C 319.730469 260.574219 319.722656 259.535156 319.691406 258.496094 C 319.65625 257.457031 319.597656 256.421875 319.511719 255.386719 C 319.425781 254.351562 319.316406 253.320312 319.179688 252.289062 C 319.042969 251.261719 318.878906 250.234375 318.691406 249.214844 C 318.503906 248.191406 318.292969 247.175781 318.054688 246.164062 C 317.816406 245.15625 317.554688 244.148438 317.265625 243.152344 C 316.980469 242.15625 316.667969 241.164062 316.332031 240.183594 C 315.992188 239.199219 315.632812 238.226562 315.246094 237.261719 C 314.863281 236.296875 314.453125 235.34375 314.023438 234.398438 C 313.589844 233.457031 313.132812 232.523438 312.65625 231.601562 C 312.175781 230.679688 311.675781 229.769531 311.152344 228.875 C 310.628906 227.976562 310.082031 227.09375 309.515625 226.222656 C 308.949219 225.355469 308.359375 224.5 307.75 223.660156 C 307.140625 222.820312 306.507812 221.996094 305.859375 221.1875 C 305.207031 220.375 304.535156 219.585938 303.847656 218.808594 C 303.15625 218.03125 302.445312 217.273438 301.71875 216.535156 C 300.992188 215.792969 300.246094 215.070312 299.480469 214.367188 C 298.71875 213.664062 297.9375 212.980469 297.140625 212.316406 C 296.34375 211.652344 295.53125 211.007812 294.699219 210.382812 C 293.871094 209.757812 293.027344 209.15625 292.167969 208.574219 C 291.308594 207.988281 290.433594 207.429688 289.546875 206.890625 C 288.660156 206.351562 287.757812 205.835938 286.847656 205.339844 C 285.933594 204.84375 285.007812 204.375 284.074219 203.925781 C 283.136719 203.476562 282.191406 203.050781 281.234375 202.652344 C 280.277344 202.25 279.308594 201.871094 278.332031 201.519531 C 277.355469 201.164062 276.371094 200.835938 275.378906 200.53125 C 274.386719 200.226562 273.386719 199.945312 272.382812 199.691406 C 271.375 199.4375 270.363281 199.207031 269.347656 199.003906 C 268.328125 198.796875 267.304688 198.617188 266.28125 198.464844 C 265.253906 198.308594 264.222656 198.179688 263.191406 198.078125 C 262.15625 197.976562 261.121094 197.898438 260.085938 197.847656 C 259.050781 197.796875 258.011719 197.769531 256.972656 197.769531 C 255.9375 197.769531 254.898438 197.796875 253.863281 197.847656 C 252.824219 197.898438 251.789062 197.976562 250.757812 198.078125 C 249.722656 198.179688 248.695312 198.308594 247.667969 198.464844 C 246.640625 198.617188 245.621094 198.796875 244.601562 199.003906 C 243.585938 199.207031 242.574219 199.4375 241.566406 199.691406 C 240.558594 199.945312 239.558594 200.226562 238.566406 200.53125 C 237.574219 200.835938 236.589844 201.164062 235.617188 201.519531 C 234.640625 201.871094 233.671875 202.25 232.714844 202.652344 C 231.757812 203.050781 230.8125 203.476562 229.875 203.925781 C 228.9375 204.375 228.015625 204.84375 227.101562 205.339844 C 226.1875 205.835938 225.289062 206.351562 224.402344 206.890625 C 223.515625 207.429688 222.640625 207.988281 221.78125 208.574219 C 220.921875 209.15625 220.078125 209.757812 219.246094 210.382812 C 218.417969 211.007812 217.605469 211.652344 216.808594 212.316406 C 216.011719 212.980469 215.230469 213.664062 214.464844 214.367188 C 213.703125 215.070312 212.957031 215.792969 212.230469 216.535156 C 211.5 217.273438 210.792969 218.03125 210.101562 218.808594 C 209.410156 219.585938 208.742188 220.375 208.089844 221.1875 C 207.441406 221.996094 206.808594 222.820312 206.199219 223.660156 C 205.589844 224.5 205 225.355469 204.433594 226.222656 C 203.867188 227.09375 203.320312 227.976562 202.796875 228.875 C 202.273438 229.769531 201.773438 230.679688 201.292969 231.601562 C 200.8125 232.523438 200.359375 233.457031 199.925781 234.398438 C 199.492188 235.34375 199.085938 236.296875 198.699219 237.261719 C 198.316406 238.226562 197.953125 239.199219 197.617188 240.183594 C 197.28125 241.164062 196.96875 242.15625 196.679688 243.152344 C 196.394531 244.148438 196.132812 245.15625 195.894531 246.164062 C 195.65625 247.175781 195.441406 248.191406 195.253906 249.214844 C 195.066406 250.234375 194.90625 251.261719 194.769531 252.289062 C 194.632812 253.320312 194.523438 254.351562 194.4375 255.386719 C 194.351562 256.421875 194.292969 257.457031 194.257812 258.496094 C 194.222656 259.535156 194.214844 260.574219 194.234375 261.609375 L 194.234375 804.78125 C 194.234375 805.257812 194.324219 805.71875 194.507812 806.160156 C 194.691406 806.601562 194.953125 806.992188 195.289062 807.332031 C 195.628906 807.667969 196.015625 807.929688 196.460938 808.113281 C 196.902344 808.296875 197.359375 808.386719 197.839844 808.386719 C 198.316406 808.386719 198.777344 808.296875 199.21875 808.113281 C 199.660156 807.929688 200.050781 807.667969 200.386719 807.332031 C 200.726562 806.992188 200.988281 806.601562 201.167969 806.160156 C 201.351562 805.71875 201.445312 805.257812 201.445312 804.78125 L 201.445312 261.609375 C 201.410156 259.769531 201.46875 257.933594 201.617188 256.097656 C 201.769531 254.261719 202.007812 252.441406 202.339844 250.628906 C 202.667969 248.820312 203.089844 247.03125 203.597656 245.261719 C 204.105469 243.492188 204.699219 241.753906 205.378906 240.042969 C 206.0625 238.332031 206.824219 236.660156 207.671875 235.027344 C 208.519531 233.390625 209.445312 231.804688 210.449219 230.261719 C 211.457031 228.722656 212.535156 227.234375 213.6875 225.796875 C 214.839844 224.363281 216.0625 222.988281 217.351562 221.675781 C 218.640625 220.363281 219.992188 219.117188 221.402344 217.9375 C 222.816406 216.757812 224.285156 215.652344 225.808594 214.621094 C 227.328125 213.585938 228.898438 212.632812 230.519531 211.757812 C 232.136719 210.878906 233.792969 210.085938 235.488281 209.371094 C 237.1875 208.660156 238.914062 208.035156 240.671875 207.496094 C 242.429688 206.953125 244.210938 206.503906 246.015625 206.140625 C 247.820312 205.777344 249.636719 205.503906 251.46875 205.320312 C 253.300781 205.136719 255.132812 205.046875 256.972656 205.046875 C 258.8125 205.046875 260.648438 205.136719 262.480469 205.320312 C 264.3125 205.503906 266.128906 205.777344 267.933594 206.140625 C 269.734375 206.503906 271.515625 206.953125 273.277344 207.496094 C 275.035156 208.035156 276.761719 208.660156 278.457031 209.371094 C 280.15625 210.085938 281.8125 210.878906 283.429688 211.757812 C 285.046875 212.632812 286.617188 213.585938 288.140625 214.621094 C 289.664062 215.652344 291.132812 216.757812 292.542969 217.9375 C 293.957031 219.117188 295.308594 220.363281 296.597656 221.675781 C 297.886719 222.988281 299.109375 224.363281 300.261719 225.796875 C 301.414062 227.234375 302.492188 228.722656 303.496094 230.261719 C 304.503906 231.804688 305.429688 233.390625 306.277344 235.027344 C 307.121094 236.660156 307.886719 238.332031 308.566406 240.042969 C 309.25 241.753906 309.84375 243.492188 310.351562 245.261719 C 310.859375 247.03125 311.28125 248.820312 311.609375 250.628906 C 311.941406 252.441406 312.179688 254.261719 312.328125 256.097656 C 312.480469 257.933594 312.539062 259.769531 312.503906 261.609375 L 312.503906 804.78125 C 312.503906 805.257812 312.59375 805.71875 312.777344 806.160156 C 312.960938 806.601562 313.222656 806.992188 313.558594 807.332031 C 313.898438 807.667969 314.289062 807.929688 314.730469 808.113281 C 315.171875 808.296875 315.632812 808.386719 316.109375 808.386719 C 316.585938 808.386719 317.046875 808.296875 317.488281 808.113281 C 317.929688 807.929688 318.320312 807.667969 318.660156 807.332031 C 318.996094 806.992188 319.257812 806.601562 319.441406 806.160156 C 319.625 805.71875 319.714844 805.257812 319.714844 804.78125 Z M 319.714844 804.78125 " fill-opacity="1" fill-rule="nonzero"/></g></svg>