<svg xmlns="http://www.w3.org/2000/svg" xmlns:xlink="http://www.w3.org/1999/xlink" width="1920" zoomAndPan="magnify" viewBox="0 0 1440 809.999993" height="1080" preserveAspectRatio="xMidYMid meet" version="1.0"><path fill="#000000" d="M 1722.027344 2486.699219 C 1721.183594 2486.699219 1720.351562 2486.617188 1719.527344 2486.453125 C 1718.703125 2486.289062 1717.902344 2486.046875 1717.128906 2485.726562 C 1716.351562 2485.402344 1715.613281 2485.007812 1714.914062 2484.542969 C 1714.214844 2484.074219 1713.570312 2483.546875 1712.972656 2482.949219 C 1712.378906 2482.355469 1711.847656 2481.710938 1711.382812 2481.011719 C 1710.914062 2480.3125 1710.519531 2479.574219 1710.199219 2478.796875 C 1709.878906 2478.019531 1709.636719 2477.21875 1709.472656 2476.394531 C 1709.308594 2475.570312 1709.226562 2474.738281 1709.226562 2473.898438 L 1709.226562 531.527344 C 1709.226562 42.589844 1311.53125 -355.140625 822.699219 -355.140625 C 333.867188 -355.140625 -63.894531 42.589844 -63.894531 531.527344 L -63.894531 2473.898438 C -63.894531 2474.738281 -63.976562 2475.570312 -64.140625 2476.394531 C -64.304688 2477.21875 -64.546875 2478.019531 -64.867188 2478.796875 C -65.191406 2479.574219 -65.585938 2480.3125 -66.050781 2481.011719 C -66.519531 2481.710938 -67.050781 2482.355469 -67.644531 2482.949219 C -68.238281 2483.546875 -68.882812 2484.074219 -69.582031 2484.542969 C -70.28125 2485.007812 -71.019531 2485.402344 -71.796875 2485.726562 C -72.574219 2486.046875 -73.371094 2486.289062 -74.195312 2486.453125 C -75.019531 2486.617188 -75.855469 2486.699219 -76.695312 2486.699219 C -77.535156 2486.699219 -78.367188 2486.617188 -79.191406 2486.453125 C -80.015625 2486.289062 -80.816406 2486.046875 -81.59375 2485.726562 C -82.367188 2485.402344 -83.105469 2485.007812 -83.804688 2484.542969 C -84.503906 2484.074219 -85.152344 2483.546875 -85.746094 2482.949219 C -86.339844 2482.355469 -86.871094 2481.710938 -87.335938 2481.011719 C -87.804688 2480.3125 -88.199219 2479.574219 -88.519531 2478.796875 C -88.839844 2478.019531 -89.085938 2477.21875 -89.25 2476.394531 C -89.414062 2475.570312 -89.496094 2474.738281 -89.496094 2473.898438 L -89.496094 531.527344 C -89.496094 28.507812 319.722656 -380.742188 822.699219 -380.742188 C 1325.671875 -380.742188 1734.824219 28.507812 1734.824219 531.527344 L 1734.824219 2473.898438 C 1734.824219 2474.738281 1734.742188 2475.570312 1734.578125 2476.394531 C 1734.414062 2477.21875 1734.171875 2478.019531 1733.851562 2478.796875 C 1733.53125 2479.574219 1733.136719 2480.3125 1732.667969 2481.011719 C 1732.203125 2481.710938 1731.671875 2482.355469 1731.078125 2482.949219 C 1730.480469 2483.546875 1729.835938 2484.074219 1729.136719 2484.542969 C 1728.4375 2485.007812 1727.699219 2485.402344 1726.921875 2485.726562 C 1726.148438 2486.046875 1725.347656 2486.289062 1724.523438 2486.453125 C 1723.699219 2486.617188 1722.867188 2486.699219 1722.027344 2486.699219 Z M 1596.96875 2473.515625 L 1596.96875 534.148438 C 1596.964844 521.480469 1596.644531 508.816406 1596.019531 496.160156 C 1595.390625 483.503906 1594.453125 470.875 1593.207031 458.265625 C 1591.957031 445.65625 1590.402344 433.085938 1588.539062 420.550781 C 1586.671875 408.019531 1584.5 395.539062 1582.023438 383.113281 C 1579.546875 370.6875 1576.769531 358.328125 1573.683594 346.039062 C 1570.601562 333.75 1567.21875 321.542969 1563.535156 309.417969 C 1559.851562 297.292969 1555.875 285.269531 1551.601562 273.339844 C 1547.328125 261.410156 1542.765625 249.59375 1537.914062 237.890625 C 1533.058594 226.1875 1527.921875 214.609375 1522.503906 203.15625 C 1517.082031 191.703125 1511.382812 180.390625 1505.40625 169.21875 C 1499.429688 158.046875 1493.183594 147.027344 1486.667969 136.160156 C 1480.148438 125.292969 1473.371094 114.59375 1466.328125 104.0625 C 1459.285156 93.527344 1451.988281 83.175781 1444.441406 73 C 1436.890625 62.824219 1429.09375 52.839844 1421.054688 43.046875 C 1413.011719 33.253906 1404.738281 23.667969 1396.226562 14.28125 C 1387.714844 4.894531 1378.980469 -4.277344 1370.019531 -13.234375 C 1361.058594 -22.191406 1351.882812 -30.925781 1342.492188 -39.433594 C 1333.105469 -47.9375 1323.511719 -56.210938 1313.714844 -64.246094 C 1303.921875 -72.28125 1293.933594 -80.074219 1283.753906 -87.621094 C 1273.578125 -95.167969 1263.222656 -102.457031 1252.683594 -109.496094 C 1242.148438 -116.53125 1231.449219 -123.308594 1220.578125 -129.820312 C 1209.710938 -136.332031 1198.691406 -142.574219 1187.515625 -148.546875 C 1176.339844 -154.515625 1165.027344 -160.210938 1153.570312 -165.625 C 1142.117188 -171.042969 1130.539062 -176.171875 1118.832031 -181.019531 C 1107.125 -185.867188 1095.308594 -190.425781 1083.378906 -194.695312 C 1071.449219 -198.960938 1059.421875 -202.933594 1047.296875 -206.609375 C 1035.171875 -210.285156 1022.964844 -213.664062 1010.675781 -216.742188 C 998.386719 -219.820312 986.027344 -222.59375 973.601562 -225.066406 C 961.175781 -227.535156 948.695312 -229.703125 936.164062 -231.558594 C 923.628906 -233.417969 911.058594 -234.96875 898.449219 -236.210938 C 885.839844 -237.453125 873.210938 -238.382812 860.554688 -239.003906 C 847.902344 -239.625 835.238281 -239.9375 822.570312 -239.9375 C 809.898438 -239.9375 797.238281 -239.625 784.582031 -239.003906 C 771.929688 -238.382812 759.296875 -237.453125 746.6875 -236.210938 C 734.078125 -234.96875 721.507812 -233.417969 708.976562 -231.558594 C 696.445312 -229.703125 683.964844 -227.535156 671.539062 -225.066406 C 659.113281 -222.59375 646.753906 -219.820312 634.464844 -216.742188 C 622.171875 -213.664062 609.964844 -210.285156 597.839844 -206.609375 C 585.714844 -202.933594 573.6875 -198.960938 561.761719 -194.695312 C 549.832031 -190.425781 538.011719 -185.867188 526.308594 -181.019531 C 514.601562 -176.171875 503.019531 -171.042969 491.566406 -165.625 C 480.113281 -160.210938 468.796875 -154.515625 457.625 -148.546875 C 446.449219 -142.574219 435.429688 -136.332031 424.558594 -129.820312 C 413.691406 -123.308594 402.988281 -116.53125 392.453125 -109.496094 C 381.917969 -102.457031 371.5625 -95.167969 361.382812 -87.621094 C 351.207031 -80.074219 341.21875 -72.28125 331.421875 -64.246094 C 321.628906 -56.210938 312.035156 -47.9375 302.644531 -39.433594 C 293.257812 -30.925781 284.082031 -22.191406 275.121094 -13.234375 C 266.160156 -4.277344 257.421875 4.894531 248.910156 14.28125 C 240.402344 23.667969 232.125 33.253906 224.085938 43.046875 C 216.046875 52.839844 208.25 62.824219 200.699219 73 C 193.148438 83.175781 185.851562 93.527344 178.8125 104.0625 C 171.769531 114.59375 164.988281 125.292969 158.472656 136.160156 C 151.957031 147.027344 145.707031 158.046875 139.730469 169.21875 C 133.757812 180.390625 128.058594 191.703125 122.636719 203.15625 C 117.214844 214.609375 112.078125 226.1875 107.226562 237.890625 C 102.375 249.59375 97.808594 261.410156 93.539062 273.339844 C 89.265625 285.269531 85.285156 297.296875 81.605469 309.417969 C 77.921875 321.542969 74.539062 333.75 71.453125 346.039062 C 68.371094 358.328125 65.589844 370.6875 63.113281 383.113281 C 60.636719 395.539062 58.464844 408.019531 56.601562 420.550781 C 54.738281 433.085938 53.179688 445.65625 51.933594 458.265625 C 50.6875 470.875 49.75 483.503906 49.121094 496.160156 C 48.492188 508.816406 48.175781 521.480469 48.167969 534.148438 L 48.167969 2473.515625 C 48.167969 2474.355469 48.25 2475.1875 48.414062 2476.011719 C 48.578125 2476.835938 48.824219 2477.636719 49.144531 2478.414062 C 49.464844 2479.191406 49.859375 2479.929688 50.328125 2480.625 C 50.792969 2481.324219 51.324219 2481.972656 51.917969 2482.566406 C 52.511719 2483.160156 53.160156 2483.691406 53.859375 2484.160156 C 54.558594 2484.625 55.292969 2485.019531 56.070312 2485.339844 C 56.847656 2485.664062 57.648438 2485.90625 58.472656 2486.070312 C 59.296875 2486.234375 60.128906 2486.316406 60.96875 2486.316406 C 61.808594 2486.316406 62.640625 2486.234375 63.46875 2486.070312 C 64.292969 2485.90625 65.089844 2485.664062 65.867188 2485.339844 C 66.644531 2485.019531 67.382812 2484.625 68.082031 2484.160156 C 68.78125 2483.691406 69.425781 2483.160156 70.019531 2482.566406 C 70.613281 2481.972656 71.144531 2481.324219 71.613281 2480.625 C 72.078125 2479.925781 72.472656 2479.191406 72.796875 2478.414062 C 73.117188 2477.636719 73.359375 2476.835938 73.523438 2476.011719 C 73.6875 2475.1875 73.769531 2474.355469 73.769531 2473.515625 L 73.769531 534.148438 C 73.769531 521.894531 74.070312 509.644531 74.671875 497.40625 C 75.273438 485.164062 76.175781 472.945312 77.375 460.75 C 78.578125 448.550781 80.078125 436.390625 81.875 424.269531 C 83.671875 412.144531 85.765625 400.074219 88.15625 388.054688 C 90.546875 376.035156 93.234375 364.078125 96.210938 352.191406 C 99.1875 340.300781 102.457031 328.496094 106.011719 316.765625 C 109.570312 305.039062 113.414062 293.40625 117.542969 281.867188 C 121.671875 270.324219 126.078125 258.894531 130.769531 247.570312 C 135.457031 236.25 140.421875 225.046875 145.664062 213.96875 C 150.902344 202.890625 156.410156 191.945312 162.1875 181.136719 C 167.964844 170.328125 174.003906 159.667969 180.300781 149.15625 C 186.601562 138.644531 193.15625 128.292969 199.964844 118.105469 C 206.773438 107.914062 213.828125 97.894531 221.128906 88.050781 C 228.429688 78.207031 235.964844 68.550781 243.738281 59.074219 C 251.515625 49.601562 259.515625 40.324219 267.746094 31.242188 C 275.976562 22.164062 284.421875 13.289062 293.089844 4.625 C 301.753906 -4.042969 310.625 -12.492188 319.707031 -20.722656 C 328.785156 -28.953125 338.0625 -36.953125 347.535156 -44.730469 C 357.007812 -52.503906 366.667969 -60.042969 376.511719 -67.34375 C 386.351562 -74.644531 396.371094 -81.699219 406.558594 -88.507812 C 416.75 -95.316406 427.097656 -101.871094 437.609375 -108.171875 C 448.121094 -114.472656 458.78125 -120.511719 469.585938 -126.289062 C 480.394531 -132.066406 491.339844 -137.574219 502.417969 -142.816406 C 513.496094 -148.054688 524.695312 -153.019531 536.015625 -157.710938 C 547.339844 -162.398438 558.769531 -166.808594 570.304688 -170.9375 C 581.84375 -175.066406 593.476562 -178.910156 605.203125 -182.46875 C 616.929688 -186.027344 628.738281 -189.292969 640.625 -192.269531 C 652.511719 -195.25 664.464844 -197.933594 676.484375 -200.324219 C 688.503906 -202.714844 700.574219 -204.808594 712.699219 -206.609375 C 724.820312 -208.40625 736.980469 -209.90625 749.175781 -211.109375 C 761.371094 -212.308594 773.585938 -213.210938 785.828125 -213.8125 C 798.066406 -214.414062 810.316406 -214.714844 822.570312 -214.714844 C 834.824219 -214.714844 847.070312 -214.414062 859.3125 -213.8125 C 871.550781 -213.210938 883.769531 -212.308594 895.964844 -211.109375 C 908.160156 -209.90625 920.320312 -208.40625 932.441406 -206.609375 C 944.5625 -204.808594 956.632812 -202.714844 968.652344 -200.324219 C 980.671875 -197.933594 992.625 -195.25 1004.511719 -192.269531 C 1016.402344 -189.292969 1028.207031 -186.027344 1039.933594 -182.46875 C 1051.660156 -178.910156 1063.292969 -175.066406 1074.832031 -170.9375 C 1086.371094 -166.808594 1097.800781 -162.398438 1109.121094 -157.710938 C 1120.445312 -153.019531 1131.644531 -148.054688 1142.722656 -142.816406 C 1153.800781 -137.574219 1164.742188 -132.066406 1175.550781 -126.289062 C 1186.359375 -120.511719 1197.019531 -114.472656 1207.53125 -108.171875 C 1218.039062 -101.871094 1228.390625 -95.316406 1238.582031 -88.507812 C 1248.769531 -81.699219 1258.785156 -74.644531 1268.628906 -67.34375 C 1278.472656 -60.042969 1288.128906 -52.503906 1297.601562 -44.730469 C 1307.074219 -36.953125 1316.351562 -28.953125 1325.433594 -20.722656 C 1334.511719 -12.492188 1343.386719 -4.042969 1352.050781 4.625 C 1360.714844 13.289062 1369.164062 22.164062 1377.394531 31.242188 C 1385.625 40.324219 1393.625 49.601562 1401.398438 59.074219 C 1409.171875 68.550781 1416.710938 78.207031 1424.011719 88.050781 C 1431.3125 97.894531 1438.367188 107.914062 1445.171875 118.105469 C 1451.980469 128.292969 1458.535156 138.644531 1464.835938 149.15625 C 1471.136719 159.667969 1477.175781 170.328125 1482.953125 181.136719 C 1488.730469 191.945312 1494.238281 202.890625 1499.476562 213.96875 C 1504.714844 225.046875 1509.679688 236.25 1514.371094 247.570312 C 1519.058594 258.894531 1523.46875 270.324219 1527.597656 281.867188 C 1531.726562 293.40625 1535.570312 305.039062 1539.125 316.765625 C 1542.683594 328.496094 1545.949219 340.300781 1548.929688 352.191406 C 1551.90625 364.078125 1554.589844 376.035156 1556.980469 388.054688 C 1559.371094 400.074219 1561.464844 412.144531 1563.265625 424.269531 C 1565.0625 436.390625 1566.5625 448.550781 1567.765625 460.75 C 1568.964844 472.945312 1569.867188 485.164062 1570.46875 497.40625 C 1571.070312 509.644531 1571.371094 521.894531 1571.371094 534.148438 L 1571.371094 2473.515625 C 1571.371094 2474.355469 1571.453125 2475.1875 1571.613281 2476.011719 C 1571.777344 2476.835938 1572.023438 2477.636719 1572.34375 2478.414062 C 1572.664062 2479.191406 1573.058594 2479.929688 1573.527344 2480.625 C 1573.992188 2481.324219 1574.523438 2481.972656 1575.117188 2482.566406 C 1575.710938 2483.160156 1576.359375 2483.691406 1577.058594 2484.160156 C 1577.757812 2484.625 1578.496094 2485.019531 1579.269531 2485.339844 C 1580.046875 2485.664062 1580.847656 2485.90625 1581.671875 2486.070312 C 1582.496094 2486.234375 1583.328125 2486.316406 1584.167969 2486.316406 C 1585.011719 2486.316406 1585.84375 2486.234375 1586.667969 2486.070312 C 1587.492188 2485.90625 1588.292969 2485.664062 1589.066406 2485.339844 C 1589.84375 2485.019531 1590.582031 2484.625 1591.28125 2484.160156 C 1591.980469 2483.691406 1592.625 2483.160156 1593.21875 2482.566406 C 1593.816406 2481.972656 1594.34375 2481.324219 1594.8125 2480.625 C 1595.277344 2479.925781 1595.671875 2479.191406 1595.996094 2478.414062 C 1596.316406 2477.636719 1596.558594 2476.835938 1596.722656 2476.011719 C 1596.886719 2475.1875 1596.96875 2474.355469 1596.96875 2473.515625 Z M 1459.304688 2473.066406 L 1459.304688 536.519531 C 1459.304688 526.101562 1459.050781 515.691406 1458.539062 505.289062 C 1458.027344 494.882812 1457.261719 484.5 1456.242188 474.132812 C 1455.21875 463.765625 1453.945312 453.433594 1452.417969 443.128906 C 1450.890625 432.824219 1449.109375 422.566406 1447.078125 412.347656 C 1445.046875 402.132812 1442.765625 391.972656 1440.234375 381.867188 C 1437.703125 371.765625 1434.925781 361.726562 1431.902344 351.761719 C 1428.878906 341.792969 1425.613281 331.90625 1422.101562 322.097656 C 1418.59375 312.289062 1414.847656 302.574219 1410.859375 292.953125 C 1406.875 283.328125 1402.65625 273.808594 1398.203125 264.390625 C 1393.75 254.976562 1389.066406 245.675781 1384.160156 236.488281 C 1379.25 227.300781 1374.117188 218.242188 1368.761719 209.308594 C 1363.40625 200.371094 1357.835938 191.574219 1352.050781 182.914062 C 1346.261719 174.253906 1340.269531 165.738281 1334.0625 157.375 C 1327.859375 149.007812 1321.453125 140.796875 1314.847656 132.746094 C 1308.238281 124.695312 1301.4375 116.808594 1294.441406 109.089844 C 1287.449219 101.371094 1280.269531 93.832031 1272.902344 86.464844 C 1265.539062 79.101562 1257.996094 71.921875 1250.28125 64.925781 C 1242.5625 57.929688 1234.679688 51.128906 1226.628906 44.519531 C 1218.578125 37.910156 1210.367188 31.503906 1202.003906 25.300781 C 1193.636719 19.09375 1185.125 13.097656 1176.464844 7.3125 C 1167.804688 1.527344 1159.007812 -4.046875 1150.074219 -9.402344 C 1141.140625 -14.753906 1132.078125 -19.886719 1122.894531 -24.796875 C 1113.707031 -29.707031 1104.40625 -34.390625 1094.992188 -38.84375 C 1085.578125 -43.296875 1076.058594 -47.515625 1066.433594 -51.503906 C 1056.8125 -55.488281 1047.097656 -59.238281 1037.292969 -62.746094 C 1027.484375 -66.253906 1017.597656 -69.523438 1007.632812 -72.546875 C 997.664062 -75.570312 987.628906 -78.347656 977.527344 -80.878906 C 967.421875 -83.410156 957.261719 -85.691406 947.046875 -87.722656 C 936.832031 -89.753906 926.574219 -91.535156 916.269531 -93.0625 C 905.96875 -94.589844 895.632812 -95.867188 885.269531 -96.886719 C 874.902344 -97.90625 864.519531 -98.675781 854.117188 -99.183594 C 843.714844 -99.695312 833.304688 -99.953125 822.890625 -99.953125 C 812.472656 -99.953125 802.066406 -99.695312 791.664062 -99.183594 C 781.257812 -98.675781 770.875 -97.90625 760.511719 -96.886719 C 750.144531 -95.867188 739.8125 -94.589844 729.507812 -93.0625 C 719.207031 -91.535156 708.945312 -89.753906 698.730469 -87.722656 C 688.515625 -85.691406 678.355469 -83.410156 668.253906 -80.878906 C 658.148438 -78.347656 648.113281 -75.570312 638.148438 -72.546875 C 628.179688 -69.523438 618.292969 -66.253906 608.488281 -62.746094 C 598.679688 -59.238281 588.964844 -55.488281 579.34375 -51.503906 C 569.722656 -47.515625 560.203125 -43.296875 550.785156 -38.84375 C 541.371094 -34.390625 532.070312 -29.707031 522.886719 -24.796875 C 513.699219 -19.886719 504.640625 -14.753906 495.707031 -9.402344 C 486.773438 -4.046875 477.976562 1.527344 469.316406 7.3125 C 460.65625 13.097656 452.144531 19.09375 443.777344 25.300781 C 435.410156 31.503906 427.203125 37.910156 419.152344 44.519531 C 411.101562 51.128906 403.214844 57.929688 395.5 64.925781 C 387.78125 71.921875 380.242188 79.101562 372.875 86.464844 C 365.511719 93.832031 358.332031 101.371094 351.335938 109.089844 C 344.34375 116.808594 337.539062 124.695312 330.933594 132.746094 C 324.324219 140.796875 317.921875 149.007812 311.714844 157.375 C 305.511719 165.738281 299.515625 174.253906 293.730469 182.914062 C 287.941406 191.574219 282.371094 200.371094 277.015625 209.308594 C 271.664062 218.242188 266.53125 227.300781 261.621094 236.488281 C 256.710938 245.675781 252.03125 254.976562 247.578125 264.390625 C 243.125 273.808594 238.902344 283.328125 234.917969 292.953125 C 230.933594 302.574219 227.183594 312.289062 223.675781 322.097656 C 220.167969 331.90625 216.902344 341.792969 213.878906 351.761719 C 210.855469 361.726562 208.078125 371.765625 205.546875 381.867188 C 203.015625 391.972656 200.734375 402.132812 198.703125 412.347656 C 196.671875 422.566406 194.890625 432.824219 193.363281 443.128906 C 191.832031 453.433594 190.558594 463.765625 189.539062 474.132812 C 188.515625 484.5 187.75 494.882812 187.242188 505.289062 C 186.730469 515.691406 186.472656 526.101562 186.472656 536.519531 L 186.472656 2473.066406 C 186.472656 2473.90625 186.554688 2474.738281 186.71875 2475.5625 C 186.882812 2476.386719 187.125 2477.1875 187.449219 2477.964844 C 187.769531 2478.742188 188.164062 2479.480469 188.632812 2480.179688 C 189.097656 2480.878906 189.628906 2481.523438 190.222656 2482.117188 C 190.816406 2482.710938 191.464844 2483.242188 192.164062 2483.710938 C 192.859375 2484.175781 193.597656 2484.570312 194.375 2484.894531 C 195.152344 2485.214844 195.953125 2485.457031 196.777344 2485.621094 C 197.601562 2485.785156 198.433594 2485.867188 199.273438 2485.867188 C 200.113281 2485.867188 200.945312 2485.785156 201.769531 2485.621094 C 202.59375 2485.457031 203.394531 2485.214844 204.171875 2484.894531 C 204.949219 2484.570312 205.6875 2484.175781 206.386719 2483.710938 C 207.082031 2483.242188 207.730469 2482.710938 208.324219 2482.117188 C 208.917969 2481.523438 209.449219 2480.878906 209.917969 2480.179688 C 210.382812 2479.480469 210.777344 2478.742188 211.097656 2477.964844 C 211.421875 2477.1875 211.664062 2476.386719 211.828125 2475.5625 C 211.992188 2474.738281 212.074219 2473.90625 212.074219 2473.066406 L 212.074219 536.519531 C 212.074219 526.519531 212.320312 516.53125 212.808594 506.542969 C 213.300781 496.558594 214.035156 486.59375 215.015625 476.644531 C 215.996094 466.695312 217.21875 456.773438 218.683594 446.886719 C 220.152344 436.996094 221.859375 427.148438 223.808594 417.34375 C 225.761719 407.539062 227.949219 397.785156 230.378906 388.089844 C 232.808594 378.390625 235.472656 368.757812 238.375 359.191406 C 241.277344 349.625 244.410156 340.136719 247.78125 330.722656 C 251.148438 321.308594 254.742188 311.984375 258.570312 302.75 C 262.394531 293.511719 266.445312 284.375 270.71875 275.339844 C 274.992188 266.300781 279.484375 257.375 284.199219 248.558594 C 288.910156 239.742188 293.835938 231.042969 298.976562 222.46875 C 304.113281 213.894531 309.460938 205.449219 315.015625 197.136719 C 320.570312 188.824219 326.324219 180.65625 332.277344 172.625 C 338.234375 164.59375 344.382812 156.714844 350.722656 148.988281 C 357.0625 141.257812 363.589844 133.691406 370.304688 126.285156 C 377.019531 118.875 383.910156 111.636719 390.976562 104.570312 C 398.046875 97.5 405.285156 90.609375 412.691406 83.894531 C 420.097656 77.179688 427.664062 70.652344 435.390625 64.3125 C 443.121094 57.96875 450.996094 51.820312 459.027344 45.863281 C 467.054688 39.910156 475.226562 34.152344 483.539062 28.601562 C 491.851562 23.046875 500.292969 17.699219 508.867188 12.558594 C 517.441406 7.417969 526.136719 2.492188 534.953125 -2.21875 C 543.769531 -6.933594 552.695312 -11.425781 561.730469 -15.699219 C 570.769531 -19.972656 579.90625 -24.023438 589.140625 -27.851562 C 598.375 -31.675781 607.699219 -35.273438 617.113281 -38.640625 C 626.523438 -42.007812 636.011719 -45.144531 645.578125 -48.046875 C 655.144531 -50.949219 664.777344 -53.613281 674.472656 -56.042969 C 684.171875 -58.472656 693.921875 -60.660156 703.726562 -62.613281 C 713.53125 -64.5625 723.375 -66.269531 733.265625 -67.738281 C 743.152344 -69.203125 753.070312 -70.429688 763.019531 -71.410156 C 772.96875 -72.386719 782.933594 -73.125 792.917969 -73.613281 C 802.902344 -74.105469 812.894531 -74.351562 822.890625 -74.351562 C 832.886719 -74.351562 842.875 -74.105469 852.859375 -73.613281 C 862.84375 -73.125 872.8125 -72.386719 882.761719 -71.410156 C 892.707031 -70.429688 902.625 -69.203125 912.515625 -67.738281 C 922.402344 -66.269531 932.25 -64.5625 942.054688 -62.613281 C 951.859375 -60.660156 961.609375 -58.472656 971.304688 -56.042969 C 981.003906 -53.613281 990.632812 -50.949219 1000.199219 -48.046875 C 1009.765625 -45.144531 1019.253906 -42.007812 1028.667969 -38.640625 C 1038.078125 -35.273438 1047.402344 -31.675781 1056.640625 -27.851562 C 1065.875 -24.023438 1075.011719 -19.972656 1084.046875 -15.699219 C 1093.082031 -11.425781 1102.011719 -6.933594 1110.828125 -2.21875 C 1119.640625 2.492188 1128.335938 7.417969 1136.910156 12.558594 C 1145.484375 17.699219 1153.929688 23.046875 1162.242188 28.601562 C 1170.550781 34.152344 1178.722656 39.910156 1186.753906 45.863281 C 1194.78125 51.820312 1202.660156 57.96875 1210.386719 64.3125 C 1218.113281 70.652344 1225.683594 77.179688 1233.089844 83.894531 C 1240.496094 90.609375 1247.734375 97.5 1254.800781 104.570312 C 1261.871094 111.636719 1268.761719 118.875 1275.472656 126.285156 C 1282.1875 133.691406 1288.714844 141.257812 1295.058594 148.988281 C 1301.398438 156.714844 1307.546875 164.59375 1313.5 172.625 C 1319.457031 180.65625 1325.210938 188.824219 1330.765625 197.136719 C 1336.316406 205.449219 1341.664062 213.894531 1346.804688 222.46875 C 1351.941406 231.042969 1356.867188 239.738281 1361.582031 248.558594 C 1366.292969 257.375 1370.785156 266.300781 1375.0625 275.339844 C 1379.335938 284.375 1383.382812 293.511719 1387.210938 302.75 C 1391.035156 311.984375 1394.632812 321.308594 1398 330.722656 C 1401.367188 340.136719 1404.503906 349.625 1407.402344 359.191406 C 1410.304688 368.757812 1412.972656 378.390625 1415.398438 388.089844 C 1417.828125 397.785156 1420.019531 407.539062 1421.96875 417.34375 C 1423.917969 427.148438 1425.628906 436.996094 1427.09375 446.886719 C 1428.5625 456.773438 1429.785156 466.695312 1430.765625 476.644531 C 1431.746094 486.59375 1432.480469 496.558594 1432.96875 506.542969 C 1433.460938 516.53125 1433.707031 526.519531 1433.707031 536.519531 L 1433.707031 2473.066406 C 1433.707031 2473.90625 1433.789062 2474.738281 1433.953125 2475.5625 C 1434.117188 2476.386719 1434.359375 2477.1875 1434.679688 2477.964844 C 1435 2478.742188 1435.394531 2479.480469 1435.863281 2480.179688 C 1436.328125 2480.878906 1436.859375 2481.523438 1437.453125 2482.117188 C 1438.046875 2482.710938 1438.695312 2483.242188 1439.394531 2483.710938 C 1440.09375 2484.175781 1440.832031 2484.570312 1441.605469 2484.894531 C 1442.382812 2485.214844 1443.183594 2485.457031 1444.007812 2485.621094 C 1444.832031 2485.785156 1445.664062 2485.867188 1446.503906 2485.867188 C 1447.347656 2485.867188 1448.179688 2485.785156 1449.003906 2485.621094 C 1449.828125 2485.457031 1450.628906 2485.214844 1451.402344 2484.894531 C 1452.179688 2484.570312 1452.917969 2484.175781 1453.617188 2483.710938 C 1454.316406 2483.242188 1454.960938 2482.710938 1455.554688 2482.117188 C 1456.152344 2481.523438 1456.679688 2480.878906 1457.148438 2480.179688 C 1457.613281 2479.480469 1458.007812 2478.742188 1458.332031 2477.964844 C 1458.652344 2477.1875 1458.894531 2476.386719 1459.058594 2475.5625 C 1459.222656 2474.738281 1459.304688 2473.90625 1459.304688 2473.066406 Z M 1321.386719 2472.683594 L 1321.386719 539.078125 C 1321.480469 530.859375 1321.367188 522.644531 1321.054688 514.433594 C 1320.742188 506.21875 1320.226562 498.019531 1319.507812 489.832031 C 1318.789062 481.644531 1317.871094 473.480469 1316.746094 465.335938 C 1315.625 457.195312 1314.300781 449.085938 1312.777344 441.007812 C 1311.253906 432.933594 1309.535156 424.898438 1307.613281 416.90625 C 1305.691406 408.917969 1303.574219 400.976562 1301.261719 393.089844 C 1298.949219 385.203125 1296.441406 377.378906 1293.742188 369.617188 C 1291.042969 361.855469 1288.152344 354.164062 1285.074219 346.542969 C 1281.992188 338.921875 1278.726562 331.382812 1275.273438 323.925781 C 1271.820312 316.46875 1268.183594 309.101562 1264.367188 301.820312 C 1260.550781 294.542969 1256.554688 287.363281 1252.382812 280.28125 C 1248.210938 273.203125 1243.863281 266.226562 1239.347656 259.363281 C 1234.828125 252.496094 1230.144531 245.746094 1225.292969 239.113281 C 1220.445312 232.476562 1215.429688 225.96875 1210.257812 219.582031 C 1205.085938 213.195312 1199.757812 206.941406 1194.277344 200.816406 C 1188.792969 194.695312 1183.164062 188.710938 1177.386719 182.867188 C 1171.605469 177.019531 1165.6875 171.324219 1159.628906 165.769531 C 1153.570312 160.21875 1147.375 154.820312 1141.046875 149.574219 C 1134.722656 144.328125 1128.269531 139.242188 1121.691406 134.316406 C 1115.113281 129.390625 1108.417969 124.628906 1101.601562 120.035156 C 1094.789062 115.441406 1087.867188 111.015625 1080.832031 106.761719 C 1073.800781 102.511719 1066.667969 98.433594 1059.433594 94.535156 C 1052.199219 90.632812 1044.875 86.914062 1037.457031 83.378906 C 1030.039062 79.839844 1022.535156 76.488281 1014.953125 73.320312 C 1007.371094 70.152344 999.710938 67.175781 991.980469 64.386719 C 984.25 61.601562 976.453125 59.003906 968.59375 56.601562 C 960.738281 54.199219 952.824219 51.992188 944.855469 49.980469 C 936.886719 47.972656 928.871094 46.15625 920.816406 44.542969 C 912.757812 42.929688 904.664062 41.511719 896.535156 40.300781 C 888.40625 39.085938 880.253906 38.070312 872.078125 37.261719 C 863.898438 36.449219 855.707031 35.839844 847.496094 35.433594 C 839.289062 35.027344 831.074219 34.824219 822.859375 34.824219 C 814.640625 34.824219 806.425781 35.027344 798.21875 35.433594 C 790.011719 35.839844 781.816406 36.449219 773.640625 37.261719 C 765.460938 38.070312 757.308594 39.085938 749.179688 40.300781 C 741.050781 41.511719 732.957031 42.929688 724.902344 44.542969 C 716.84375 46.15625 708.828125 47.972656 700.859375 49.980469 C 692.894531 51.992188 684.980469 54.199219 677.121094 56.601562 C 669.261719 59.003906 661.464844 61.601562 653.734375 64.386719 C 646.003906 67.175781 638.347656 70.152344 630.761719 73.320312 C 623.179688 76.488281 615.679688 79.839844 608.261719 83.378906 C 600.84375 86.914062 593.515625 90.632812 586.28125 94.535156 C 579.046875 98.433594 571.914062 102.511719 564.882812 106.761719 C 557.851562 111.015625 550.925781 115.441406 544.113281 120.035156 C 537.300781 124.628906 530.601562 129.390625 524.023438 134.316406 C 517.445312 139.242188 510.992188 144.328125 504.667969 149.574219 C 498.339844 154.820312 492.148438 160.21875 486.085938 165.769531 C 480.027344 171.324219 474.109375 177.019531 468.332031 182.867188 C 462.550781 188.710938 456.921875 194.695312 451.441406 200.816406 C 445.957031 206.941406 440.628906 213.195312 435.457031 219.582031 C 430.285156 225.96875 425.273438 232.476562 420.421875 239.113281 C 415.570312 245.746094 410.886719 252.496094 406.367188 259.363281 C 401.851562 266.226562 397.507812 273.203125 393.332031 280.28125 C 389.160156 287.363281 385.167969 294.542969 381.347656 301.820312 C 377.53125 309.101562 373.894531 316.46875 370.441406 323.925781 C 366.988281 331.382812 363.722656 338.921875 360.644531 346.542969 C 357.5625 354.164062 354.671875 361.855469 351.972656 369.617188 C 349.273438 377.378906 346.765625 385.203125 344.453125 393.089844 C 342.140625 400.976562 340.023438 408.917969 338.101562 416.90625 C 336.183594 424.898438 334.460938 432.933594 332.9375 441.007812 C 331.414062 449.085938 330.089844 457.195312 328.96875 465.335938 C 327.847656 473.480469 326.925781 481.644531 326.207031 489.832031 C 325.488281 498.019531 324.972656 506.21875 324.660156 514.433594 C 324.347656 522.644531 324.238281 530.859375 324.328125 539.078125 L 324.328125 2472.683594 C 324.328125 2473.523438 324.410156 2474.355469 324.574219 2475.179688 C 324.738281 2476.003906 324.984375 2476.804688 325.304688 2477.582031 C 325.625 2478.359375 326.019531 2479.09375 326.488281 2479.792969 C 326.953125 2480.492188 327.484375 2481.140625 328.078125 2481.734375 C 328.671875 2482.328125 329.320312 2482.859375 330.019531 2483.328125 C 330.71875 2483.792969 331.453125 2484.1875 332.230469 2484.507812 C 333.007812 2484.832031 333.808594 2485.074219 334.632812 2485.238281 C 335.457031 2485.402344 336.289062 2485.484375 337.128906 2485.484375 C 337.96875 2485.484375 338.800781 2485.402344 339.625 2485.238281 C 340.453125 2485.074219 341.25 2484.832031 342.027344 2484.507812 C 342.804688 2484.1875 343.542969 2483.792969 344.242188 2483.324219 C 344.941406 2482.859375 345.585938 2482.328125 346.179688 2481.734375 C 346.773438 2481.140625 347.304688 2480.492188 347.773438 2479.792969 C 348.238281 2479.09375 348.632812 2478.359375 348.957031 2477.582031 C 349.277344 2476.804688 349.519531 2476.003906 349.683594 2475.179688 C 349.847656 2474.355469 349.929688 2473.523438 349.929688 2472.683594 L 349.929688 539.078125 C 349.839844 531.28125 349.941406 523.484375 350.234375 515.691406 C 350.53125 507.898438 351.019531 500.117188 351.699219 492.351562 C 352.378906 484.582031 353.25 476.835938 354.3125 469.109375 C 355.375 461.382812 356.625 453.6875 358.070312 446.023438 C 359.511719 438.359375 361.144531 430.738281 362.964844 423.15625 C 364.785156 415.570312 366.792969 408.039062 368.984375 400.554688 C 371.179688 393.070312 373.554688 385.648438 376.113281 378.28125 C 378.675781 370.914062 381.414062 363.617188 384.335938 356.386719 C 387.257812 349.15625 390.355469 342 393.628906 334.925781 C 396.90625 327.847656 400.351562 320.855469 403.972656 313.949219 C 407.59375 307.042969 411.382812 300.226562 415.339844 293.507812 C 419.300781 286.789062 423.421875 280.171875 427.707031 273.65625 C 431.988281 267.140625 436.433594 260.734375 441.035156 254.441406 C 445.636719 248.144531 450.390625 241.964844 455.296875 235.90625 C 460.207031 229.84375 465.261719 223.910156 470.460938 218.097656 C 475.660156 212.289062 481.003906 206.609375 486.484375 201.0625 C 491.964844 195.519531 497.582031 190.109375 503.332031 184.84375 C 509.078125 179.574219 514.957031 174.449219 520.957031 169.472656 C 526.960938 164.496094 533.082031 159.667969 539.324219 154.992188 C 545.5625 150.316406 551.917969 145.800781 558.382812 141.441406 C 564.847656 137.078125 571.414062 132.878906 578.085938 128.84375 C 584.757812 124.808594 591.527344 120.941406 598.390625 117.238281 C 605.253906 113.539062 612.203125 110.007812 619.242188 106.652344 C 626.28125 103.292969 633.398438 100.113281 640.59375 97.109375 C 647.789062 94.101562 655.054688 91.277344 662.390625 88.632812 C 669.722656 85.984375 677.121094 83.523438 684.578125 81.242188 C 692.035156 78.960938 699.542969 76.867188 707.105469 74.960938 C 714.664062 73.050781 722.265625 71.328125 729.914062 69.796875 C 737.558594 68.265625 745.238281 66.921875 752.949219 65.769531 C 760.660156 64.617188 768.398438 63.65625 776.15625 62.886719 C 783.917969 62.117188 791.691406 61.539062 799.480469 61.152344 C 807.265625 60.765625 815.058594 60.574219 822.859375 60.574219 C 830.65625 60.574219 838.449219 60.765625 846.238281 61.152344 C 854.023438 61.539062 861.796875 62.117188 869.558594 62.886719 C 877.316406 63.65625 885.054688 64.617188 892.765625 65.769531 C 900.476562 66.921875 908.15625 68.265625 915.800781 69.796875 C 923.449219 71.328125 931.050781 73.050781 938.613281 74.960938 C 946.171875 76.867188 953.679688 78.960938 961.136719 81.242188 C 968.59375 83.523438 975.992188 85.984375 983.324219 88.632812 C 990.660156 91.277344 997.925781 94.101562 1005.121094 97.109375 C 1012.316406 100.113281 1019.433594 103.292969 1026.472656 106.652344 C 1033.511719 110.007812 1040.460938 113.539062 1047.324219 117.238281 C 1054.1875 120.941406 1060.957031 124.808594 1067.628906 128.84375 C 1074.300781 132.878906 1080.867188 137.078125 1087.332031 141.441406 C 1093.796875 145.800781 1100.152344 150.316406 1106.390625 154.992188 C 1112.632812 159.667969 1118.753906 164.496094 1124.757812 169.472656 C 1130.761719 174.449219 1136.636719 179.574219 1142.386719 184.84375 C 1148.132812 190.109375 1153.75 195.519531 1159.230469 201.0625 C 1164.710938 206.609375 1170.054688 212.289062 1175.253906 218.097656 C 1180.457031 223.910156 1185.507812 229.84375 1190.417969 235.90625 C 1195.324219 241.964844 1200.078125 248.144531 1204.679688 254.441406 C 1209.28125 260.734375 1213.726562 267.140625 1218.011719 273.65625 C 1222.292969 280.171875 1226.417969 286.789062 1230.375 293.507812 C 1234.332031 300.226562 1238.121094 307.042969 1241.742188 313.949219 C 1245.363281 320.855469 1248.808594 327.847656 1252.085938 334.925781 C 1255.359375 342 1258.457031 349.15625 1261.378906 356.386719 C 1264.300781 363.617188 1267.039062 370.914062 1269.601562 378.28125 C 1272.160156 385.648438 1274.535156 393.070312 1276.730469 400.554688 C 1278.921875 408.039062 1280.929688 415.570312 1282.75 423.15625 C 1284.570312 430.738281 1286.203125 438.359375 1287.644531 446.023438 C 1289.089844 453.6875 1290.339844 461.382812 1291.402344 469.109375 C 1292.46875 476.835938 1293.339844 484.582031 1294.019531 492.351562 C 1294.699219 500.117188 1295.183594 507.898438 1295.480469 515.691406 C 1295.773438 523.484375 1295.875 531.28125 1295.785156 539.078125 L 1295.785156 2472.683594 C 1295.785156 2473.523438 1295.867188 2474.355469 1296.03125 2475.179688 C 1296.195312 2476.003906 1296.4375 2476.804688 1296.757812 2477.582031 C 1297.082031 2478.359375 1297.476562 2479.09375 1297.941406 2479.792969 C 1298.410156 2480.492188 1298.941406 2481.140625 1299.535156 2481.734375 C 1300.128906 2482.328125 1300.773438 2482.859375 1301.472656 2483.328125 C 1302.171875 2483.792969 1302.910156 2484.1875 1303.6875 2484.507812 C 1304.464844 2484.832031 1305.265625 2485.074219 1306.089844 2485.238281 C 1306.914062 2485.402344 1307.746094 2485.484375 1308.585938 2485.484375 C 1309.425781 2485.484375 1310.257812 2485.402344 1311.082031 2485.238281 C 1311.90625 2485.074219 1312.707031 2484.832031 1313.484375 2484.507812 C 1314.261719 2484.1875 1314.996094 2483.792969 1315.695312 2483.324219 C 1316.394531 2482.859375 1317.042969 2482.328125 1317.636719 2481.734375 C 1318.230469 2481.140625 1318.761719 2480.492188 1319.226562 2479.792969 C 1319.695312 2479.09375 1320.089844 2478.359375 1320.410156 2477.582031 C 1320.734375 2476.804688 1320.976562 2476.003906 1321.140625 2475.179688 C 1321.304688 2474.355469 1321.386719 2473.523438 1321.386719 2472.683594 Z M 1183.53125 2472.234375 L 1183.53125 541.574219 C 1183.53125 535.671875 1183.386719 529.773438 1183.09375 523.878906 C 1182.804688 517.980469 1182.371094 512.097656 1181.792969 506.222656 C 1181.214844 500.347656 1180.492188 494.492188 1179.625 488.652344 C 1178.761719 482.816406 1177.75 477 1176.601562 471.210938 C 1175.449219 465.421875 1174.15625 459.664062 1172.722656 453.9375 C 1171.289062 448.214844 1169.714844 442.527344 1168 436.878906 C 1166.289062 431.230469 1164.4375 425.625 1162.449219 420.066406 C 1160.460938 414.511719 1158.335938 409.003906 1156.078125 403.550781 C 1153.820312 398.097656 1151.425781 392.703125 1148.902344 387.367188 C 1146.378906 382.03125 1143.726562 376.761719 1140.945312 371.554688 C 1138.164062 366.351562 1135.253906 361.214844 1132.21875 356.152344 C 1129.1875 351.089844 1126.03125 346.105469 1122.75 341.195312 C 1119.472656 336.289062 1116.074219 331.464844 1112.558594 326.722656 C 1109.042969 321.980469 1105.414062 317.332031 1101.667969 312.769531 C 1097.925781 308.203125 1094.070312 303.738281 1090.105469 299.363281 C 1086.144531 294.988281 1082.074219 290.714844 1077.902344 286.542969 C 1073.726562 282.367188 1069.453125 278.300781 1065.082031 274.335938 C 1060.707031 270.371094 1056.238281 266.515625 1051.675781 262.773438 C 1047.113281 259.027344 1042.464844 255.398438 1037.722656 251.882812 C 1032.980469 248.363281 1028.15625 244.96875 1023.25 241.6875 C 1018.34375 238.410156 1013.359375 235.25 1008.296875 232.21875 C 1003.234375 229.183594 998.097656 226.273438 992.894531 223.492188 C 987.6875 220.707031 982.417969 218.054688 977.082031 215.53125 C 971.746094 213.007812 966.351562 210.617188 960.902344 208.359375 C 955.449219 206.097656 949.941406 203.976562 944.386719 201.988281 C 938.828125 200 933.226562 198.148438 927.578125 196.433594 C 921.929688 194.722656 916.242188 193.148438 910.519531 191.710938 C 904.792969 190.277344 899.035156 188.984375 893.246094 187.835938 C 887.457031 186.683594 881.644531 185.671875 875.804688 184.808594 C 869.96875 183.941406 864.113281 183.21875 858.238281 182.640625 C 852.363281 182.0625 846.480469 181.628906 840.585938 181.339844 C 834.691406 181.046875 828.792969 180.902344 822.890625 180.902344 C 816.988281 180.902344 811.089844 181.046875 805.195312 181.339844 C 799.300781 181.628906 793.414062 182.0625 787.539062 182.640625 C 781.667969 183.21875 775.8125 183.941406 769.972656 184.808594 C 764.132812 185.671875 758.320312 186.683594 752.53125 187.835938 C 746.742188 188.984375 740.988281 190.277344 735.261719 191.710938 C 729.535156 193.148438 723.847656 194.722656 718.203125 196.433594 C 712.554688 198.148438 706.949219 200 701.394531 201.988281 C 695.835938 203.976562 690.332031 206.097656 684.878906 208.359375 C 679.425781 210.617188 674.03125 213.007812 668.695312 215.53125 C 663.359375 218.054688 658.089844 220.707031 652.886719 223.492188 C 647.679688 226.273438 642.546875 229.183594 637.484375 232.21875 C 632.421875 235.25 627.4375 238.410156 622.527344 241.6875 C 617.621094 244.96875 612.796875 248.363281 608.058594 251.882812 C 603.316406 255.398438 598.664062 259.027344 594.101562 262.773438 C 589.539062 266.515625 585.070312 270.371094 580.699219 274.335938 C 576.324219 278.300781 572.050781 282.367188 567.878906 286.542969 C 563.707031 290.714844 559.636719 294.988281 555.671875 299.363281 C 551.710938 303.738281 547.855469 308.203125 544.109375 312.769531 C 540.367188 317.332031 536.738281 321.980469 533.222656 326.722656 C 529.703125 331.464844 526.308594 336.289062 523.027344 341.195312 C 519.75 346.105469 516.59375 351.089844 513.558594 356.152344 C 510.523438 361.214844 507.617188 366.351562 504.832031 371.554688 C 502.050781 376.761719 499.398438 382.03125 496.875 387.367188 C 494.351562 392.703125 491.960938 398.097656 489.703125 403.550781 C 487.441406 409.003906 485.320312 414.511719 483.332031 420.066406 C 481.34375 425.625 479.492188 431.230469 477.777344 436.878906 C 476.066406 442.527344 474.492188 448.214844 473.058594 453.9375 C 471.625 459.664062 470.332031 465.421875 469.179688 471.210938 C 468.027344 477 467.019531 482.816406 466.152344 488.652344 C 465.289062 494.492188 464.566406 500.347656 463.988281 506.222656 C 463.40625 512.097656 462.972656 517.980469 462.683594 523.878906 C 462.394531 529.773438 462.25 535.671875 462.25 541.574219 L 462.25 2472.234375 C 462.25 2473.074219 462.332031 2473.90625 462.496094 2474.734375 C 462.660156 2475.554688 462.902344 2476.355469 463.222656 2477.132812 C 463.546875 2477.910156 463.941406 2478.648438 464.40625 2479.347656 C 464.875 2480.046875 465.40625 2480.691406 466 2481.285156 C 466.59375 2481.882812 467.238281 2482.410156 467.9375 2482.878906 C 468.636719 2483.34375 469.375 2483.738281 470.152344 2484.0625 C 470.929688 2484.382812 471.726562 2484.625 472.550781 2484.789062 C 473.378906 2484.953125 474.210938 2485.035156 475.050781 2485.035156 C 475.890625 2485.035156 476.722656 2484.953125 477.546875 2484.789062 C 478.371094 2484.625 479.171875 2484.382812 479.949219 2484.0625 C 480.722656 2483.738281 481.460938 2483.34375 482.160156 2482.878906 C 482.859375 2482.410156 483.507812 2481.882812 484.101562 2481.285156 C 484.695312 2480.691406 485.226562 2480.046875 485.691406 2479.347656 C 486.160156 2478.648438 486.554688 2477.910156 486.875 2477.132812 C 487.195312 2476.355469 487.441406 2475.554688 487.605469 2474.730469 C 487.769531 2473.90625 487.851562 2473.074219 487.851562 2472.234375 L 487.851562 541.574219 C 487.851562 536.089844 487.984375 530.609375 488.253906 525.132812 C 488.523438 519.65625 488.925781 514.191406 489.464844 508.730469 C 490 503.273438 490.671875 497.835938 491.476562 492.410156 C 492.28125 486.984375 493.21875 481.585938 494.289062 476.207031 C 495.355469 470.828125 496.558594 465.480469 497.890625 460.160156 C 499.222656 454.839844 500.683594 449.558594 502.277344 444.308594 C 503.867188 439.0625 505.585938 433.855469 507.433594 428.695312 C 509.28125 423.53125 511.253906 418.414062 513.351562 413.347656 C 515.453125 408.285156 517.671875 403.273438 520.015625 398.3125 C 522.363281 393.355469 524.824219 388.460938 527.410156 383.625 C 529.996094 378.789062 532.699219 374.019531 535.515625 369.316406 C 538.335938 364.613281 541.269531 359.980469 544.3125 355.421875 C 547.359375 350.859375 550.515625 346.378906 553.78125 341.972656 C 557.050781 337.570312 560.421875 333.25 563.898438 329.007812 C 567.378906 324.769531 570.960938 320.621094 574.640625 316.554688 C 578.324219 312.492188 582.105469 308.523438 585.980469 304.644531 C 589.859375 300.769531 593.828125 296.988281 597.890625 293.304688 C 601.953125 289.621094 606.105469 286.042969 610.34375 282.5625 C 614.582031 279.085938 618.902344 275.710938 623.308594 272.445312 C 627.710938 269.179688 632.191406 266.023438 636.75 262.976562 C 641.3125 259.929688 645.941406 256.996094 650.644531 254.175781 C 655.347656 251.359375 660.117188 248.65625 664.953125 246.070312 C 669.789062 243.484375 674.683594 241.019531 679.640625 238.675781 C 684.597656 236.332031 689.609375 234.109375 694.675781 232.011719 C 699.742188 229.914062 704.855469 227.941406 710.019531 226.09375 C 715.179688 224.246094 720.386719 222.527344 725.632812 220.933594 C 730.878906 219.34375 736.164062 217.878906 741.480469 216.546875 C 746.800781 215.214844 752.148438 214.015625 757.527344 212.945312 C 762.90625 211.875 768.304688 210.9375 773.730469 210.132812 C 779.152344 209.328125 784.59375 208.65625 790.050781 208.121094 C 795.507812 207.582031 800.972656 207.179688 806.449219 206.910156 C 811.925781 206.640625 817.40625 206.507812 822.890625 206.507812 C 828.371094 206.507812 833.851562 206.640625 839.328125 206.910156 C 844.804688 207.179688 850.273438 207.582031 855.730469 208.121094 C 861.1875 208.65625 866.625 209.328125 872.050781 210.132812 C 877.472656 210.9375 882.875 211.875 888.253906 212.945312 C 893.628906 214.015625 898.980469 215.214844 904.296875 216.546875 C 909.617188 217.878906 914.898438 219.34375 920.148438 220.933594 C 925.394531 222.527344 930.597656 224.246094 935.761719 226.09375 C 940.925781 227.941406 946.039062 229.914062 951.105469 232.011719 C 956.167969 234.109375 961.179688 236.332031 966.136719 238.675781 C 971.09375 241.019531 975.992188 243.484375 980.828125 246.070312 C 985.660156 248.65625 990.429688 251.359375 995.132812 254.175781 C 999.835938 256.996094 1004.46875 259.929688 1009.027344 262.976562 C 1013.585938 266.023438 1018.070312 269.179688 1022.472656 272.445312 C 1026.875 275.710938 1031.199219 279.085938 1035.4375 282.5625 C 1039.675781 286.042969 1043.824219 289.621094 1047.886719 293.304688 C 1051.953125 296.988281 1055.921875 300.769531 1059.796875 304.644531 C 1063.675781 308.523438 1067.457031 312.492188 1071.136719 316.554688 C 1074.820312 320.621094 1078.402344 324.769531 1081.878906 329.007812 C 1085.359375 333.25 1088.730469 337.570312 1091.996094 341.972656 C 1095.261719 346.378906 1098.417969 350.859375 1101.464844 355.421875 C 1104.511719 359.980469 1107.445312 364.613281 1110.261719 369.316406 C 1113.082031 374.019531 1115.785156 378.789062 1118.367188 383.625 C 1120.953125 388.460938 1123.417969 393.355469 1125.761719 398.3125 C 1128.105469 403.273438 1130.328125 408.285156 1132.425781 413.347656 C 1134.523438 418.414062 1136.496094 423.53125 1138.34375 428.695312 C 1140.191406 433.855469 1141.910156 439.0625 1143.503906 444.308594 C 1145.09375 449.558594 1146.554688 454.839844 1147.890625 460.160156 C 1149.222656 465.480469 1150.421875 470.828125 1151.492188 476.207031 C 1152.5625 481.585938 1153.5 486.984375 1154.304688 492.410156 C 1155.109375 497.835938 1155.777344 503.273438 1156.316406 508.730469 C 1156.855469 514.191406 1157.257812 519.65625 1157.527344 525.132812 C 1157.796875 530.609375 1157.929688 536.089844 1157.929688 541.574219 L 1157.929688 2472.234375 C 1157.929688 2473.074219 1158.011719 2473.90625 1158.175781 2474.734375 C 1158.339844 2475.554688 1158.582031 2476.355469 1158.902344 2477.132812 C 1159.226562 2477.910156 1159.621094 2478.648438 1160.085938 2479.347656 C 1160.554688 2480.046875 1161.085938 2480.691406 1161.679688 2481.285156 C 1162.273438 2481.882812 1162.917969 2482.410156 1163.617188 2482.878906 C 1164.316406 2483.34375 1165.054688 2483.738281 1165.832031 2484.0625 C 1166.609375 2484.382812 1167.40625 2484.625 1168.234375 2484.789062 C 1169.058594 2484.953125 1169.890625 2485.035156 1170.730469 2485.035156 C 1171.570312 2485.035156 1172.402344 2484.953125 1173.226562 2484.789062 C 1174.050781 2484.625 1174.851562 2484.382812 1175.628906 2484.0625 C 1176.40625 2483.738281 1177.140625 2483.34375 1177.839844 2482.878906 C 1178.539062 2482.410156 1179.1875 2481.882812 1179.78125 2481.285156 C 1180.375 2480.691406 1180.90625 2480.046875 1181.371094 2479.347656 C 1181.839844 2478.648438 1182.234375 2477.910156 1182.554688 2477.132812 C 1182.875 2476.355469 1183.121094 2475.554688 1183.285156 2474.730469 C 1183.449219 2473.90625 1183.53125 2473.074219 1183.53125 2472.234375 Z M 1045.609375 2471.851562 L 1045.609375 544.070312 C 1045.671875 540.386719 1045.644531 536.703125 1045.523438 533.015625 C 1045.402344 529.332031 1045.191406 525.65625 1044.886719 521.980469 C 1044.585938 518.308594 1044.191406 514.644531 1043.707031 510.992188 C 1043.222656 507.339844 1042.648438 503.699219 1041.980469 500.074219 C 1041.316406 496.449219 1040.5625 492.84375 1039.71875 489.253906 C 1038.871094 485.667969 1037.941406 482.101562 1036.917969 478.558594 C 1035.898438 475.019531 1034.789062 471.503906 1033.59375 468.019531 C 1032.398438 464.53125 1031.117188 461.078125 1029.75 457.65625 C 1028.382812 454.230469 1026.933594 450.84375 1025.398438 447.496094 C 1023.863281 444.144531 1022.246094 440.832031 1020.546875 437.5625 C 1018.847656 434.292969 1017.066406 431.066406 1015.207031 427.882812 C 1013.347656 424.703125 1011.410156 421.566406 1009.398438 418.480469 C 1007.382812 415.394531 1005.292969 412.359375 1003.125 409.378906 C 1000.960938 406.394531 998.722656 403.46875 996.410156 400.597656 C 994.101562 397.726562 991.71875 394.914062 989.269531 392.160156 C 986.820312 389.410156 984.304688 386.71875 981.71875 384.089844 C 979.136719 381.460938 976.488281 378.898438 973.777344 376.402344 C 971.066406 373.90625 968.296875 371.476562 965.464844 369.117188 C 962.632812 366.757812 959.742188 364.472656 956.800781 362.253906 C 953.855469 360.039062 950.855469 357.898438 947.804688 355.832031 C 944.753906 353.765625 941.652344 351.773438 938.503906 349.859375 C 935.351562 347.949219 932.15625 346.113281 928.917969 344.359375 C 925.675781 342.605469 922.394531 340.929688 919.070312 339.339844 C 915.746094 337.746094 912.382812 336.238281 908.984375 334.8125 C 905.585938 333.390625 902.152344 332.050781 898.6875 330.796875 C 895.222656 329.539062 891.730469 328.371094 888.207031 327.292969 C 884.683594 326.210938 881.132812 325.21875 877.5625 324.3125 C 873.988281 323.40625 870.398438 322.589844 866.785156 321.863281 C 863.171875 321.136719 859.542969 320.5 855.898438 319.957031 C 852.253906 319.410156 848.597656 318.953125 844.929688 318.585938 C 841.261719 318.222656 837.585938 317.949219 833.90625 317.765625 C 830.226562 317.582031 826.542969 317.492188 822.859375 317.492188 C 819.171875 317.492188 815.488281 317.582031 811.808594 317.765625 C 808.128906 317.949219 804.453125 318.222656 800.785156 318.585938 C 797.117188 318.953125 793.464844 319.410156 789.820312 319.957031 C 786.171875 320.5 782.542969 321.136719 778.933594 321.863281 C 775.320312 322.589844 771.726562 323.40625 768.152344 324.3125 C 764.582031 325.21875 761.03125 326.210938 757.507812 327.292969 C 753.984375 328.371094 750.492188 329.539062 747.027344 330.796875 C 743.5625 332.050781 740.128906 333.390625 736.730469 334.8125 C 733.332031 336.238281 729.96875 337.746094 726.644531 339.339844 C 723.320312 340.929688 720.039062 342.605469 716.796875 344.359375 C 713.558594 346.113281 710.363281 347.949219 707.210938 349.859375 C 704.0625 351.773438 700.960938 353.765625 697.910156 355.832031 C 694.859375 357.898438 691.859375 360.039062 688.917969 362.253906 C 685.972656 364.472656 683.082031 366.757812 680.25 369.117188 C 677.421875 371.476562 674.648438 373.90625 671.9375 376.402344 C 669.226562 378.898438 666.578125 381.460938 663.996094 384.089844 C 661.414062 386.71875 658.894531 389.410156 656.445312 392.160156 C 653.996094 394.914062 651.613281 397.726562 649.304688 400.597656 C 646.992188 403.46875 644.753906 406.394531 642.589844 409.378906 C 640.421875 412.359375 638.332031 415.394531 636.320312 418.480469 C 634.304688 421.566406 632.367188 424.703125 630.507812 427.882812 C 628.648438 431.066406 626.867188 434.292969 625.167969 437.5625 C 623.46875 440.832031 621.851562 444.144531 620.316406 447.496094 C 618.78125 450.84375 617.332031 454.230469 615.964844 457.65625 C 614.597656 461.078125 613.316406 464.53125 612.121094 468.019531 C 610.925781 471.503906 609.816406 475.019531 608.796875 478.558594 C 607.773438 482.101562 606.84375 485.667969 606 489.253906 C 605.152344 492.839844 604.398438 496.449219 603.734375 500.074219 C 603.070312 503.699219 602.492188 507.339844 602.007812 510.992188 C 601.523438 514.644531 601.128906 518.308594 600.828125 521.980469 C 600.523438 525.65625 600.3125 529.332031 600.191406 533.015625 C 600.070312 536.703125 600.042969 540.386719 600.105469 544.070312 L 600.105469 2471.851562 C 600.105469 2472.691406 600.1875 2473.523438 600.351562 2474.347656 C 600.515625 2475.171875 600.757812 2475.972656 601.078125 2476.75 C 601.402344 2477.527344 601.796875 2478.265625 602.261719 2478.960938 C 602.730469 2479.660156 603.261719 2480.308594 603.855469 2480.902344 C 604.449219 2481.496094 605.09375 2482.027344 605.792969 2482.496094 C 606.492188 2482.960938 607.230469 2483.355469 608.007812 2483.675781 C 608.785156 2484 609.585938 2484.242188 610.410156 2484.40625 C 611.234375 2484.570312 612.066406 2484.652344 612.90625 2484.652344 C 613.746094 2484.652344 614.578125 2484.570312 615.402344 2484.40625 C 616.226562 2484.242188 617.027344 2484 617.804688 2483.675781 C 618.582031 2483.355469 619.316406 2482.960938 620.015625 2482.496094 C 620.714844 2482.027344 621.363281 2481.496094 621.957031 2480.902344 C 622.550781 2480.308594 623.082031 2479.660156 623.546875 2478.960938 C 624.015625 2478.265625 624.410156 2477.527344 624.730469 2476.75 C 625.054688 2475.972656 625.296875 2475.171875 625.460938 2474.347656 C 625.625 2473.523438 625.707031 2472.691406 625.707031 2471.851562 L 625.707031 544.070312 C 625.648438 540.808594 625.667969 537.542969 625.773438 534.28125 C 625.875 531.019531 626.058594 527.761719 626.324219 524.507812 C 626.589844 521.253906 626.9375 518.007812 627.363281 514.773438 C 627.789062 511.535156 628.292969 508.3125 628.878906 505.101562 C 629.464844 501.890625 630.132812 498.695312 630.878906 495.515625 C 631.621094 492.335938 632.445312 489.179688 633.347656 486.042969 C 634.25 482.90625 635.226562 479.792969 636.285156 476.703125 C 637.339844 473.613281 638.472656 470.554688 639.679688 467.523438 C 640.890625 464.488281 642.171875 461.488281 643.527344 458.519531 C 644.886719 455.550781 646.316406 452.617188 647.820312 449.71875 C 649.324219 446.824219 650.894531 443.964844 652.542969 441.144531 C 654.1875 438.324219 655.898438 435.546875 657.683594 432.8125 C 659.464844 430.078125 661.316406 427.390625 663.230469 424.746094 C 665.148438 422.105469 667.128906 419.511719 669.171875 416.96875 C 671.21875 414.421875 673.324219 411.929688 675.492188 409.492188 C 677.664062 407.050781 679.890625 404.667969 682.179688 402.339844 C 684.464844 400.011719 686.808594 397.738281 689.207031 395.527344 C 691.609375 393.3125 694.0625 391.164062 696.570312 389.070312 C 699.074219 386.980469 701.632812 384.953125 704.238281 382.988281 C 706.847656 381.027344 709.5 379.128906 712.203125 377.296875 C 714.90625 375.464844 717.652344 373.703125 720.441406 372.003906 C 723.230469 370.308594 726.058594 368.683594 728.929688 367.128906 C 731.796875 365.574219 734.707031 364.09375 737.648438 362.683594 C 740.59375 361.269531 743.570312 359.933594 746.578125 358.671875 C 749.589844 357.410156 752.628906 356.222656 755.699219 355.109375 C 758.765625 353.996094 761.859375 352.964844 764.980469 352.003906 C 768.101562 351.046875 771.242188 350.167969 774.40625 349.363281 C 777.570312 348.5625 780.753906 347.839844 783.953125 347.195312 C 787.152344 346.550781 790.367188 345.988281 793.59375 345.503906 C 796.824219 345.019531 800.0625 344.613281 803.308594 344.289062 C 806.558594 343.96875 809.8125 343.722656 813.070312 343.5625 C 816.332031 343.398438 819.59375 343.320312 822.859375 343.320312 C 826.121094 343.320312 829.382812 343.398438 832.644531 343.5625 C 835.902344 343.722656 839.15625 343.96875 842.40625 344.289062 C 845.652344 344.613281 848.890625 345.019531 852.121094 345.503906 C 855.347656 345.988281 858.5625 346.550781 861.761719 347.195312 C 864.960938 347.839844 868.144531 348.5625 871.308594 349.363281 C 874.472656 350.167969 877.613281 351.046875 880.734375 352.003906 C 883.855469 352.964844 886.949219 353.996094 890.019531 355.109375 C 893.085938 356.222656 896.125 357.410156 899.136719 358.671875 C 902.144531 359.933594 905.121094 361.269531 908.066406 362.683594 C 911.011719 364.09375 913.917969 365.574219 916.785156 367.128906 C 919.65625 368.683594 922.484375 370.308594 925.277344 372.003906 C 928.066406 373.703125 930.808594 375.464844 933.511719 377.296875 C 936.214844 379.128906 938.867188 381.027344 941.476562 382.988281 C 944.082031 384.953125 946.640625 386.980469 949.148438 389.070312 C 951.652344 391.164062 954.105469 393.3125 956.507812 395.527344 C 958.90625 397.738281 961.25 400.011719 963.539062 402.339844 C 965.824219 404.667969 968.054688 407.050781 970.222656 409.492188 C 972.390625 411.929688 974.496094 414.421875 976.542969 416.96875 C 978.585938 419.511719 980.566406 422.105469 982.484375 424.746094 C 984.402344 427.390625 986.25 430.078125 988.03125 432.8125 C 989.816406 435.546875 991.53125 438.324219 993.175781 441.144531 C 994.820312 443.964844 996.394531 446.824219 997.894531 449.71875 C 999.398438 452.617188 1000.828125 455.550781 1002.1875 458.519531 C 1003.542969 461.488281 1004.828125 464.488281 1006.035156 467.523438 C 1007.242188 470.554688 1008.375 473.613281 1009.429688 476.703125 C 1010.488281 479.792969 1011.464844 482.90625 1012.367188 486.042969 C 1013.269531 489.179688 1014.09375 492.335938 1014.839844 495.515625 C 1015.582031 498.695312 1016.25 501.890625 1016.835938 505.101562 C 1017.421875 508.3125 1017.925781 511.535156 1018.355469 514.773438 C 1018.78125 518.007812 1019.125 521.253906 1019.390625 524.507812 C 1019.65625 527.761719 1019.839844 531.019531 1019.941406 534.28125 C 1020.046875 537.542969 1020.070312 540.808594 1020.007812 544.070312 L 1020.007812 2471.851562 C 1020.007812 2472.691406 1020.089844 2473.523438 1020.253906 2474.347656 C 1020.417969 2475.171875 1020.664062 2475.972656 1020.984375 2476.75 C 1021.304688 2477.527344 1021.699219 2478.265625 1022.167969 2478.960938 C 1022.632812 2479.660156 1023.164062 2480.308594 1023.757812 2480.902344 C 1024.351562 2481.496094 1025 2482.027344 1025.699219 2482.496094 C 1026.398438 2482.960938 1027.132812 2483.355469 1027.910156 2483.675781 C 1028.6875 2484 1029.488281 2484.242188 1030.3125 2484.40625 C 1031.136719 2484.570312 1031.96875 2484.652344 1032.808594 2484.652344 C 1033.648438 2484.652344 1034.484375 2484.570312 1035.308594 2484.40625 C 1036.132812 2484.242188 1036.929688 2484 1037.707031 2483.675781 C 1038.484375 2483.355469 1039.222656 2482.960938 1039.921875 2482.496094 C 1040.621094 2482.027344 1041.265625 2481.496094 1041.859375 2480.902344 C 1042.453125 2480.308594 1042.984375 2479.660156 1043.453125 2478.960938 C 1043.917969 2478.265625 1044.3125 2477.527344 1044.636719 2476.75 C 1044.957031 2475.972656 1045.199219 2475.171875 1045.363281 2474.347656 C 1045.527344 2473.523438 1045.609375 2472.691406 1045.609375 2471.851562 Z M 1045.609375 2471.851562 " fill-opacity="1" fill-rule="nonzero"/></svg>